{"glyphs":{"0":{"ha":1382,"x_min":96,"x_max":1161,"o":"m 1161 497 q 1133 440 1161 464 q 1044 390 1104 415 q 979 363 983 365 q 736 88 824 278 q 729 72 735 85 q 722 56 724 58 q 715 42 721 53 q 708 28 710 31 q 699 16 706 25 q 689 5 693 7 q 678 -3 685 3 q 664 -10 671 -8 q 647 -14 657 -12 q 628 -15 638 -15 q 574 4 597 -15 q 539 45 550 24 q 512 103 528 67 q 489 154 496 140 q 286 357 418 283 q 217 388 276 363 q 126 438 157 413 q 96 501 96 464 q 115 553 96 531 q 149 584 135 576 q 201 608 164 592 q 367 708 300 653 q 482 849 435 764 q 502 890 490 863 q 524 938 514 918 q 547 977 533 957 q 582 1008 561 997 q 629 1019 603 1019 q 650 1018 640 1019 q 668 1012 660 1017 q 683 1004 676 1007 q 696 993 689 1001 q 706 981 703 985 q 716 965 710 976 q 724 949 722 953 q 733 931 726 946 q 740 914 739 917 q 869 725 794 800 q 1056 607 944 650 q 1074 600 1060 606 q 1093 592 1089 594 q 1108 585 1097 590 q 1124 576 1119 579 q 1136 566 1128 572 q 1147 553 1144 560 q 1154 539 1150 547 q 1160 520 1158 531 q 1161 497 1161 510 m 781 353 q 843 414 781 353 q 906 501 906 474 q 781 649 906 529 q 625 769 656 769 q 474 650 596 769 q 353 501 353 531 q 474 351 353 468 q 625 233 594 233 q 781 353 656 233 z "},"1":{"ha":1403,"x_min":207,"x_max":1069,"o":"m 886 844 q 850 799 886 817 q 782 782 814 782 q 717 816 747 782 q 688 885 688 850 q 706 928 688 918 q 760 939 724 939 q 841 909 796 939 q 886 844 886 879 m 1069 631 q 1056 583 1069 606 q 1018 560 1042 560 q 947 590 983 560 q 911 654 911 621 q 927 722 911 690 q 976 753 943 753 q 1038 708 1006 753 q 1069 631 1069 663 m 1069 396 q 1040 306 1069 353 q 971 258 1010 258 q 928 296 944 258 q 911 363 911 333 q 948 427 911 397 q 1021 457 985 457 q 1069 396 1069 457 m 585 890 q 555 818 585 853 q 488 783 525 783 q 426 799 460 783 q 392 840 392 815 q 433 907 392 879 q 515 935 475 935 q 563 924 542 935 q 585 890 585 913 m 883 178 q 841 109 883 140 q 760 78 799 78 q 688 125 688 78 q 717 199 688 163 q 782 235 746 235 q 846 217 808 235 q 883 178 883 200 m 361 654 q 323 590 361 621 q 251 558 285 558 q 207 646 207 558 q 236 719 207 683 q 301 756 265 756 q 344 719 328 756 q 361 654 361 683 m 588 126 q 565 90 588 101 q 515 79 543 79 q 433 108 476 79 q 389 174 389 138 q 424 219 389 206 q 496 233 458 233 q 559 198 531 233 q 588 126 588 163 m 361 363 q 346 294 361 328 q 301 260 331 260 q 235 301 264 260 q 207 382 207 343 q 208 417 207 404 q 219 445 210 431 q 249 460 229 460 q 324 429 286 460 q 361 363 361 399 z "},"2":{"ha":1410,"x_min":233,"x_max":1049,"o":"m 1049 503 q 1014 465 1049 475 q 937 455 979 454 q 860 438 894 456 q 825 381 825 421 q 842 333 825 354 q 878 301 858 313 q 915 274 899 290 q 932 236 932 257 q 910 208 932 208 q 867 224 886 208 q 836 258 847 239 q 806 293 825 278 q 761 308 786 308 q 734 304 746 308 q 715 294 722 300 q 701 277 707 289 q 693 258 696 265 q 689 235 690 251 q 688 212 688 218 q 688 186 688 206 q 688 164 688 167 q 636 75 688 75 q 595 109 606 75 q 588 184 585 143 q 578 259 590 225 q 535 293 567 293 q 476 269 503 293 q 425 219 449 244 q 381 194 401 194 q 355 205 365 194 q 344 231 344 215 q 393 299 344 257 q 442 378 442 340 q 409 442 442 424 q 338 457 376 460 q 266 464 299 454 q 233 504 233 474 q 267 546 233 535 q 340 556 300 557 q 414 569 381 554 q 447 619 447 583 q 401 697 447 654 q 356 757 356 740 q 364 779 356 769 q 385 789 372 789 q 413 765 394 789 q 460 718 431 742 q 529 694 489 694 q 555 700 544 694 q 572 717 565 706 q 582 740 578 729 q 587 769 586 751 q 588 797 588 786 q 588 826 589 808 q 588 849 588 843 q 638 929 588 929 q 667 921 656 929 q 683 895 679 913 q 688 867 688 878 q 689 835 689 856 q 689 826 689 829 q 743 694 689 694 q 803 711 775 694 q 845 747 831 728 q 876 783 860 767 q 903 800 892 800 q 927 788 917 800 q 938 761 938 776 q 885 694 938 736 q 832 629 832 651 q 866 572 832 589 q 940 556 900 556 q 1015 544 981 556 q 1049 503 1049 533 z "},"3":{"ha":1397,"x_min":169,"x_max":1101,"o":"m 1101 483 q 1079 344 1101 401 q 1031 259 1057 288 q 936 169 1006 231 q 910 146 919 154 q 783 58 838 81 q 636 36 729 36 q 492 61 547 36 q 361 151 436 86 q 233 274 260 240 q 169 492 171 357 q 174 536 169 513 q 185 576 179 560 q 200 619 190 592 q 214 658 210 646 q 358 891 271 828 q 625 954 444 954 q 819 932 742 954 q 965 840 896 910 q 1058 674 1015 790 q 1101 483 1101 558 m 950 601 q 927 638 950 624 q 875 656 904 651 q 810 673 846 661 q 757 703 775 685 q 724 749 744 714 q 682 808 704 783 q 636 833 660 833 q 590 808 611 833 q 549 745 569 782 q 517 697 529 708 q 449 670 500 682 q 358 644 397 658 q 319 601 319 629 q 346 544 319 574 q 399 479 372 514 q 425 407 425 444 q 419 344 425 386 q 414 281 414 303 q 464 236 414 236 q 543 260 493 236 q 629 285 593 285 q 715 263 660 285 q 799 240 769 240 q 847 328 847 240 q 844 379 847 346 q 842 429 842 413 q 896 514 842 463 q 950 601 950 565 z "},"4":{"ha":1400,"x_min":186,"x_max":1088,"o":"m 1088 507 q 1059 451 1088 469 q 997 430 1031 432 q 934 419 963 428 q 906 390 906 410 q 942 317 906 367 q 978 233 978 267 q 958 188 978 203 q 908 172 939 172 q 829 207 869 172 q 761 242 789 242 q 733 213 742 242 q 721 149 724 183 q 701 86 718 115 q 647 57 683 57 q 585 85 606 57 q 564 147 565 113 q 553 208 563 181 q 521 236 543 236 q 451 199 504 236 q 368 161 399 161 q 322 182 339 161 q 304 233 304 203 q 339 316 304 271 q 374 381 374 361 q 344 413 374 403 q 280 426 315 424 q 215 447 244 428 q 186 503 186 465 q 215 558 186 539 q 278 580 244 576 q 342 592 313 583 q 371 619 371 601 q 335 690 371 644 q 299 774 299 735 q 368 840 299 840 q 450 803 404 840 q 521 767 496 767 q 545 796 538 767 q 556 861 553 825 q 577 926 558 897 q 632 956 596 956 q 690 926 671 956 q 713 863 710 897 q 724 800 715 829 q 754 771 733 771 q 820 808 774 771 q 913 846 867 846 q 956 828 940 846 q 972 781 972 810 q 938 701 972 747 q 903 635 903 656 q 932 599 903 608 q 995 588 961 589 q 1058 568 1029 588 q 1088 507 1088 549 z "},"5":{"ha":1385,"x_min":119,"x_max":1140,"o":"m 1140 503 q 990 140 1140 288 q 624 -7 839 -7 q 268 144 417 -7 q 119 503 119 296 q 269 861 119 710 q 624 1013 418 1013 q 990 865 839 1013 q 1140 503 1140 717 m 990 507 q 926 702 990 651 q 717 751 863 753 l 528 751 q 335 701 390 751 q 279 513 279 651 q 292 397 279 443 q 324 325 304 351 q 386 285 344 299 q 467 269 428 272 q 578 265 507 265 l 674 265 q 781 268 743 265 q 866 283 819 271 q 935 321 913 296 q 974 392 958 346 q 990 507 990 439 m 764 500 q 727 406 764 442 q 632 371 690 371 q 536 409 574 371 q 499 506 499 447 q 535 599 499 563 q 628 636 571 636 q 726 598 688 636 q 764 500 764 560 z "},"6":{"ha":1413,"x_min":251,"x_max":1033,"o":"m 967 531 q 1033 499 1033 531 q 972 467 1033 467 q 917 476 953 467 q 882 496 882 485 q 916 519 882 508 q 967 531 950 531 m 667 825 q 658 775 667 804 q 635 746 650 746 q 612 776 622 746 q 601 821 601 806 q 635 885 601 885 q 667 825 667 885 m 924 242 q 894 213 924 213 q 856 232 874 213 q 828 276 839 251 q 803 319 818 300 q 771 339 789 339 q 687 315 725 339 q 643 290 649 290 q 600 311 639 290 q 519 332 561 332 q 478 313 494 332 q 454 271 463 294 q 426 228 446 247 q 378 210 407 210 q 356 232 356 210 q 386 279 356 256 q 448 322 417 303 q 479 357 479 342 q 467 422 479 389 q 442 472 454 454 l 429 492 q 453 536 429 493 q 476 608 476 579 q 445 659 476 638 q 383 699 414 681 q 351 740 351 718 q 358 767 351 763 q 390 772 365 772 q 425 753 408 772 q 452 713 442 735 q 481 672 463 690 q 519 653 499 653 q 574 665 550 653 q 612 690 597 678 q 633 703 626 703 q 677 679 639 703 q 750 656 715 656 q 794 675 775 656 q 824 717 814 694 q 852 760 835 740 q 892 779 869 779 q 922 750 922 779 q 903 711 922 729 q 860 683 883 693 q 817 658 836 674 q 797 622 797 642 q 810 563 797 592 q 837 519 824 535 q 850 499 850 503 q 825 453 850 494 q 800 382 800 413 q 819 338 800 356 q 862 310 839 319 q 904 284 885 301 q 924 242 924 267 m 676 154 q 642 107 676 107 q 608 157 608 107 q 617 208 608 178 q 642 239 626 239 q 676 154 676 239 m 393 493 q 363 469 393 476 q 310 461 333 461 q 251 492 251 461 q 307 524 251 524 q 358 514 324 524 q 393 493 393 504 z "},"7":{"ha":1379,"x_min":89,"x_max":1165,"o":"m 1165 501 q 1133 412 1165 447 q 1069 358 1101 376 q 1038 329 1038 340 q 1045 272 1038 310 q 1053 215 1053 235 q 1014 119 1053 158 q 918 79 975 79 q 865 86 900 79 q 814 93 831 93 q 783 73 799 93 q 756 28 768 53 q 710 -16 743 4 q 632 -36 678 -36 q 556 -16 588 -36 q 510 28 524 4 q 482 72 497 51 q 453 92 467 92 q 399 82 433 92 q 346 72 364 72 q 249 112 289 72 q 208 207 208 151 q 215 261 208 225 q 221 317 221 297 q 200 347 221 332 q 155 374 179 361 q 110 417 131 386 q 89 493 89 449 q 109 569 89 538 q 153 615 129 601 q 197 645 176 629 q 217 678 217 661 q 210 732 217 696 q 204 786 204 768 q 246 878 204 839 q 339 918 288 918 q 389 910 356 918 q 440 903 422 903 q 472 924 457 903 q 501 969 488 944 q 547 1014 514 993 q 629 1035 581 1035 q 704 1015 672 1035 q 750 970 736 994 q 778 926 764 946 q 804 906 792 906 q 857 916 822 906 q 910 926 892 926 q 1008 883 967 926 q 1049 782 1049 840 q 1042 735 1049 767 q 1035 688 1035 703 q 1055 654 1035 671 q 1100 624 1075 638 q 1145 579 1125 611 q 1165 501 1165 547 z "},"8":{"ha":1410,"x_min":242,"x_max":1040,"o":"m 1040 319 q 1019 267 1040 289 q 965 244 997 244 q 875 276 936 244 q 779 307 814 307 q 737 268 749 307 q 725 183 725 229 q 706 99 725 138 q 642 60 686 60 q 575 99 596 60 q 553 183 554 138 q 542 268 553 229 q 503 307 531 307 q 413 277 469 307 q 322 247 357 247 q 242 319 242 247 q 267 379 242 351 q 322 424 292 407 q 376 463 351 440 q 401 506 401 485 q 377 553 401 529 q 323 593 353 576 q 269 638 293 610 q 244 700 244 667 q 264 750 244 731 q 314 769 283 769 q 413 740 358 769 q 500 710 467 710 q 547 748 535 710 q 557 833 558 786 q 575 917 556 879 q 642 956 594 956 q 708 917 688 956 q 727 831 728 878 q 738 746 726 785 q 782 707 750 707 q 865 738 806 707 q 961 769 924 769 q 1019 749 997 769 q 1040 692 1040 728 q 1015 638 1040 664 q 959 594 989 611 q 903 556 929 578 q 878 513 878 533 q 903 464 878 488 q 959 424 929 440 q 1015 379 989 407 q 1040 319 1040 351 m 783 513 q 749 590 783 539 q 689 642 714 642 l 593 642 q 533 590 568 642 q 497 513 497 539 q 530 431 497 489 q 582 374 563 374 l 694 374 q 751 429 719 374 q 783 513 783 485 z "},"9":{"ha":1408,"x_min":296,"x_max":1122,"o":"m 1122 594 q 1075 531 1122 568 q 981 458 1028 493 q 933 401 933 424 q 958 298 933 365 q 982 196 982 231 q 932 124 982 124 q 813 184 890 124 q 694 244 736 244 q 592 186 667 244 q 475 128 517 128 q 440 143 454 128 q 426 179 426 158 q 447 285 426 217 q 468 390 468 354 q 441 449 468 421 q 382 494 414 476 q 323 542 350 513 q 296 604 296 571 q 351 648 296 639 q 475 658 407 657 q 561 678 543 660 q 594 756 578 694 q 634 866 611 817 q 694 915 657 915 q 763 866 739 915 q 801 754 786 817 q 833 675 815 692 q 901 656 850 660 q 999 655 951 653 q 1084 643 1046 657 q 1122 594 1122 629 m 842 463 q 810 588 842 551 q 690 625 778 625 q 589 585 615 625 q 563 467 563 546 q 613 384 563 429 q 703 339 664 339 q 788 386 733 339 q 842 463 842 433 z "},"\u0000":{"ha":1467,"x_min":0,"x_max":0,"o":""},"￦":{"ha":0,"x_min":0,"x_max":0,"o":""}," ":{"ha":714,"x_min":0,"x_max":0,"o":""},"!":{"ha":1321,"x_min":108,"x_max":1093,"o":"m 1093 628 q 1053 567 1093 593 q 960 522 1014 542 q 893 488 907 501 q 847 419 856 453 q 838 319 838 385 q 881 219 838 275 q 924 114 924 164 q 913 69 924 83 q 874 54 903 54 q 815 72 840 54 q 769 114 789 89 q 728 164 750 139 q 673 206 707 189 q 596 224 639 224 q 497 186 535 224 q 455 138 490 179 q 392 76 419 97 q 338 54 364 54 q 292 66 306 54 q 279 110 279 78 q 323 217 279 154 q 367 315 367 279 q 313 488 367 432 q 244 522 299 501 q 149 567 190 542 q 108 625 108 592 q 189 685 108 685 q 266 676 214 685 q 346 667 318 667 q 460 698 406 667 q 514 785 514 729 q 517 842 514 811 q 527 914 519 872 q 553 982 535 956 q 599 1008 572 1008 q 683 792 683 1008 q 746 702 683 736 q 869 668 808 668 q 944 676 894 668 q 1021 685 994 685 q 1093 628 1093 685 m 897 571 q 877 628 897 610 q 831 646 857 646 q 775 650 806 646 q 731 668 744 654 q 699 720 713 686 q 665 772 685 754 q 597 789 644 789 q 536 765 558 789 q 498 710 514 742 q 464 668 482 678 q 404 649 447 658 q 336 624 361 640 q 311 569 311 607 q 358 472 311 524 q 406 389 406 421 q 395 345 406 379 q 385 292 385 311 q 410 235 385 257 q 472 214 436 214 q 536 239 499 214 q 597 264 574 264 q 659 238 621 264 q 724 213 697 213 q 790 236 760 213 q 819 294 819 260 q 810 340 819 311 q 800 381 800 369 q 824 438 800 410 q 873 498 849 465 q 897 571 897 531 z "},"\"":{"ha":1113,"x_min":113,"x_max":901,"o":"m 725 831 q 717 809 725 818 q 699 800 710 800 q 677 808 686 800 q 668 828 668 815 q 676 848 668 840 q 696 856 685 856 q 725 831 725 856 m 849 703 q 841 682 849 692 q 821 672 833 672 q 801 681 810 672 q 792 700 792 689 q 821 726 792 726 q 849 703 849 726 m 901 521 q 893 500 901 510 q 874 490 885 490 q 844 518 844 490 q 874 544 844 544 q 901 521 901 544 m 522 897 q 528 892 522 897 q 533 869 533 886 q 523 843 533 853 q 496 833 513 833 q 457 868 457 833 q 467 897 457 885 q 494 908 478 908 q 522 897 511 908 m 356 829 q 348 808 356 818 q 329 799 340 799 q 308 806 317 799 q 299 826 299 814 q 329 853 299 853 q 356 829 356 853 m 844 331 q 837 309 844 318 q 818 300 829 300 q 797 308 806 300 q 788 328 788 315 q 818 354 788 354 q 844 331 844 354 m 725 204 q 717 183 725 192 q 699 174 710 174 q 668 200 668 174 q 699 226 668 226 q 725 204 725 226 m 225 696 q 217 674 225 683 q 197 665 210 665 q 176 673 185 665 q 168 693 168 681 q 197 719 168 719 q 225 696 225 719 m 169 521 q 161 500 169 510 q 142 490 153 490 q 113 518 113 490 q 142 544 113 544 q 169 521 169 544 m 536 153 q 499 118 536 118 q 460 153 460 118 q 470 181 460 169 q 497 193 481 193 q 525 182 514 193 q 536 153 536 171 m 356 204 q 348 183 356 192 q 329 174 340 174 q 308 181 317 174 q 299 201 299 189 q 329 226 299 226 q 356 204 356 226 m 225 335 q 217 313 225 322 q 197 304 210 304 q 176 312 185 304 q 168 332 168 319 q 197 357 168 357 q 225 335 225 357 z "},"#":{"ha":1232,"x_min":58,"x_max":1063,"o":"m 1063 519 q 1015 435 1063 478 q 900 349 968 392 q 813 288 832 307 q 745 194 790 265 q 654 74 700 122 q 558 26 608 26 q 471 72 511 26 q 392 184 431 117 q 332 274 353 251 q 234 339 308 297 q 109 425 160 381 q 58 519 58 469 q 105 610 58 568 q 221 695 151 653 q 313 758 290 738 q 378 849 335 779 q 467 965 422 918 q 558 1011 511 1011 q 649 960 601 1011 q 746 839 697 910 q 817 747 794 768 q 906 688 839 726 q 1018 608 974 649 q 1063 519 1063 568 m 686 715 q 676 791 686 774 q 644 813 665 808 q 611 835 622 818 q 599 874 603 846 q 585 921 596 903 q 543 939 574 939 q 499 794 507 851 l 435 325 q 434 256 425 278 q 454 233 443 235 q 485 224 465 231 q 518 199 506 217 q 532 165 522 193 q 553 115 542 136 q 576 94 564 94 q 624 231 606 94 q 686 715 686 551 z "},"$":{"ha":1407,"x_min":129,"x_max":1150,"o":"m 999 861 q 1074 787 999 861 q 1150 499 1150 713 q 999 137 1150 285 q 633 -11 847 -11 q 278 141 428 -11 q 129 499 129 293 q 278 858 129 706 q 633 1010 426 1010 q 999 861 847 1010 m 1021 496 q 909 764 1021 653 q 640 875 797 875 q 371 762 481 875 q 261 489 261 649 q 373 228 261 340 q 633 117 485 117 q 908 226 794 117 q 1021 496 1021 335 m 894 513 q 822 322 894 401 q 640 243 750 243 q 457 319 528 243 q 386 507 386 394 q 454 686 386 617 q 632 756 522 756 q 820 690 746 756 q 894 513 894 625 m 774 496 q 735 594 774 556 q 638 632 696 632 q 544 595 581 632 q 508 501 508 558 q 546 405 508 443 q 642 367 583 367 q 736 403 699 367 q 774 496 774 439 z "},"%":{"ha":1171,"x_min":53,"x_max":1013,"o":"m 1013 561 q 954 488 1013 522 q 854 453 896 453 q 843 472 843 453 l 842 590 q 879 649 839 649 q 958 615 903 649 q 1013 561 1013 581 m 860 725 q 831 649 860 700 q 779 597 801 597 q 767 610 775 597 q 751 641 760 624 q 740 661 743 658 q 729 676 738 665 q 717 692 721 686 q 710 709 714 699 q 706 729 706 719 q 769 764 706 764 q 860 725 860 764 m 685 753 q 680 705 685 738 q 668 672 675 672 q 652 678 663 672 q 630 693 642 685 q 613 704 618 701 q 600 710 610 706 q 584 717 590 714 q 570 724 578 719 q 558 736 563 729 q 554 750 554 743 q 594 793 554 769 q 656 817 633 817 q 677 794 669 817 q 685 753 685 772 m 565 858 q 518 813 565 828 q 433 797 471 797 q 372 844 372 797 q 400 921 372 868 q 449 974 428 974 q 519 927 472 974 q 565 858 565 881 m 829 540 q 804 495 829 524 q 764 467 779 467 q 735 497 744 467 q 725 551 725 526 q 750 585 725 585 q 795 567 761 585 q 829 540 829 549 m 632 636 q 613 618 632 618 q 572 628 596 618 q 549 651 549 638 q 572 678 549 664 q 608 693 594 693 q 622 668 613 693 q 632 636 632 643 m 468 678 q 435 701 435 678 q 456 749 435 715 q 489 783 476 783 q 529 750 500 783 q 558 704 558 717 q 468 678 558 678 m 867 367 q 826 342 867 357 q 774 326 786 326 q 743 360 743 326 q 759 425 743 386 q 797 464 775 464 q 842 426 817 464 q 867 367 867 388 m 714 519 q 697 494 714 511 q 672 476 681 476 q 654 494 660 476 q 649 528 649 513 q 664 550 649 550 q 692 538 671 550 q 714 519 714 526 m 546 631 q 528 613 546 619 q 494 607 510 607 q 474 622 474 607 q 485 650 474 629 q 501 671 496 671 q 528 656 511 671 q 546 631 546 640 m 735 415 q 710 401 735 410 q 678 392 686 392 q 660 411 660 392 q 670 452 660 428 q 694 476 681 476 q 721 453 707 476 q 735 415 735 429 m 364 799 q 383 792 364 799 q 403 760 403 786 q 363 698 403 733 q 294 663 322 663 q 263 686 275 663 q 251 743 251 710 q 279 811 251 811 q 364 799 325 811 m 385 594 q 364 644 364 594 q 389 690 364 690 q 460 661 460 690 q 431 619 460 644 q 385 594 401 594 m 703 342 q 685 293 703 293 q 611 321 611 293 q 638 360 611 338 q 681 383 664 383 q 703 342 703 383 m 769 165 q 663 210 663 165 q 704 274 663 236 q 772 311 746 311 q 814 229 814 311 q 806 181 814 197 q 769 165 797 165 m 419 568 q 400 531 419 561 q 372 501 381 501 q 345 526 360 501 q 331 564 331 550 q 371 582 331 582 q 399 577 379 582 q 419 568 419 572 m 593 354 q 583 325 593 344 q 564 306 572 306 q 538 323 556 306 q 521 349 521 340 q 538 367 521 361 q 569 372 556 372 q 593 354 593 372 m 417 449 q 401 428 417 428 q 372 440 393 428 q 351 461 351 453 q 371 487 351 471 q 400 503 390 503 q 417 449 417 503 m 326 613 q 310 548 326 585 q 269 511 293 511 q 223 547 247 511 q 199 606 199 582 q 238 633 199 618 q 294 647 278 647 q 326 613 326 647 m 632 275 q 613 228 632 263 q 583 194 594 194 q 540 221 569 194 q 511 261 511 247 q 540 288 511 276 q 596 299 569 299 q 632 275 632 299 m 518 326 q 497 298 518 313 q 460 283 475 283 q 444 308 453 283 q 436 342 436 332 q 456 363 436 363 q 495 352 472 363 q 518 326 518 342 m 426 343 q 365 315 426 315 q 335 333 335 315 q 365 410 335 410 q 404 385 382 410 q 426 343 426 360 m 343 428 q 314 390 343 390 q 267 407 299 390 q 235 436 235 424 q 263 480 235 451 q 306 508 292 508 q 334 481 325 508 q 343 428 343 453 m 690 135 q 660 60 690 115 q 617 4 631 4 q 544 46 590 4 q 497 113 497 88 q 546 159 497 143 q 635 175 594 175 q 690 135 690 175 m 513 225 q 474 182 513 206 q 414 158 436 158 q 389 199 404 158 q 374 251 374 239 q 407 282 374 282 q 473 265 433 282 q 513 225 513 247 m 361 247 q 290 211 361 211 l 269 211 q 214 247 214 211 q 225 324 214 289 q 260 360 236 360 q 324 317 286 360 q 361 247 361 274 m 224 385 q 183 326 224 326 q 108 358 164 326 q 53 406 53 389 q 97 476 53 429 q 163 522 140 522 q 207 477 190 522 q 224 385 224 432 m 703 568 q 665 594 688 568 q 642 636 642 619 q 686 658 642 658 q 713 647 696 658 q 731 626 731 635 q 723 590 731 613 q 703 568 715 568 z "},"&":{"ha":1418,"x_min":135,"x_max":1156,"o":"m 1003 859 q 1080 784 1003 859 q 1156 497 1156 710 q 1004 136 1156 285 q 639 -12 853 -12 q 283 139 432 -12 q 135 497 135 290 q 283 856 135 704 q 639 1008 432 1008 q 1003 859 851 1008 m 1064 660 q 1028 742 1064 710 q 942 775 993 775 q 874 750 906 775 l 985 547 q 1064 660 1064 574 m 640 950 q 557 909 586 950 q 528 814 528 868 q 646 836 585 836 q 763 815 704 836 q 732 912 763 874 q 640 950 701 950 m 1064 304 q 1042 375 1064 344 q 981 417 1019 406 l 853 222 q 932 189 889 189 q 1024 221 983 189 q 1064 304 1064 253 m 779 494 q 740 590 779 550 q 643 629 700 629 q 553 590 592 629 q 514 500 514 551 q 553 404 514 443 q 647 365 592 365 q 740 403 700 365 q 779 494 779 442 m 417 747 q 346 775 386 775 q 260 742 296 775 q 225 660 225 710 q 248 588 225 619 q 310 547 271 557 l 417 747 m 769 176 q 651 153 717 153 q 519 178 575 153 q 551 65 519 113 q 643 18 582 18 q 740 65 710 18 q 769 176 769 111 m 440 224 l 313 422 q 247 381 271 413 q 222 307 222 349 q 263 222 222 254 q 357 189 304 189 q 440 224 401 189 z "},"'":{"ha":864,"x_min":83,"x_max":703,"o":"m 90 869 q 113 812 90 838 q 164 770 136 786 q 215 725 192 754 q 238 658 238 696 q 213 585 238 621 q 160 524 189 549 q 108 464 132 500 q 83 390 83 428 q 153 165 83 283 q 321 47 222 47 q 428 89 372 47 q 485 181 485 131 q 434 299 485 225 q 383 418 383 374 q 416 482 383 453 q 496 535 449 511 q 590 585 543 558 q 670 657 638 613 q 703 758 703 701 q 594 969 703 876 q 364 1061 485 1061 q 178 1011 265 1061 q 90 869 90 961 z "},"(":{"ha":1360,"x_min":108,"x_max":1129,"o":"m 1129 503 q 978 140 1129 288 q 613 -8 826 -8 q 258 144 407 -8 q 108 503 108 296 q 257 860 108 708 q 613 1013 406 1013 q 978 864 826 1013 q 1129 503 1129 715 m 999 499 q 887 767 999 656 q 618 878 775 878 q 349 765 458 878 q 240 492 240 653 q 352 231 240 343 q 613 119 464 119 q 886 228 774 119 q 999 499 999 338 m 751 499 q 715 406 751 442 q 621 369 678 369 q 524 408 561 369 q 486 504 486 446 q 522 598 486 561 q 615 635 558 635 q 713 597 675 635 q 751 499 751 558 z "},")":{"ha":1274,"x_min":46,"x_max":1113,"o":"m 857 933 q 854 906 857 919 q 848 880 851 892 q 837 855 844 868 q 824 833 829 842 q 808 810 819 824 q 790 791 796 797 q 770 772 785 785 q 750 753 756 758 q 729 735 744 749 q 710 718 714 722 q 717 752 711 722 q 726 795 722 782 q 738 838 731 808 q 755 882 746 867 q 776 916 764 897 q 806 943 789 935 q 842 951 822 951 l 857 933 m 1049 743 q 1030 702 1047 721 q 976 669 1013 683 q 918 647 940 654 q 850 631 896 640 l 806 619 q 870 692 844 667 q 939 740 896 718 q 1032 763 982 763 l 1049 743 m 1113 483 q 1072 459 1113 469 q 1008 449 1031 449 q 977 451 993 449 q 943 458 961 453 q 914 467 925 464 q 881 479 903 471 q 851 490 858 488 q 1004 529 949 529 q 1069 515 1025 529 q 1113 483 1113 500 m 621 914 q 616 872 621 894 q 606 835 611 850 q 592 794 601 821 q 578 757 582 768 q 566 786 575 765 q 553 818 557 807 q 544 847 550 829 q 535 880 538 864 q 533 911 533 896 q 549 978 533 935 q 582 1022 564 1022 q 608 977 594 1022 q 621 914 621 932 m 446 714 q 374 777 400 751 q 326 847 349 803 q 303 939 303 890 l 324 954 q 351 945 338 954 q 374 924 364 936 q 393 892 383 913 q 409 856 403 872 q 422 815 415 839 q 432 777 429 792 q 440 741 435 763 q 446 714 444 719 m 1046 232 l 1018 211 q 932 232 971 211 q 872 276 893 253 q 814 343 850 299 q 804 356 807 351 q 838 349 811 354 q 881 340 864 344 q 926 329 899 336 q 972 313 953 322 q 1008 293 990 304 q 1036 266 1026 282 q 1046 232 1046 250 m 856 42 l 840 22 q 801 31 819 22 q 770 58 783 39 q 749 91 757 76 q 733 136 740 106 q 722 179 725 167 q 713 225 718 192 q 707 261 707 258 q 818 156 792 190 q 856 42 856 103 m 347 618 q 313 625 343 619 q 270 634 283 631 q 228 646 257 638 q 184 663 200 654 q 150 685 168 672 q 123 713 132 697 q 114 749 114 729 l 133 764 q 216 740 175 764 q 278 695 257 717 q 336 631 299 674 q 347 618 343 622 m 313 489 q 273 474 300 485 q 231 457 246 463 q 192 447 215 451 q 147 442 168 442 q 89 458 132 442 q 46 483 46 474 q 86 520 46 503 q 150 538 126 538 q 194 532 169 538 q 231 522 218 526 q 275 504 244 517 q 313 489 306 492 m 625 54 q 610 -7 625 35 q 582 -49 596 -49 q 546 -8 563 -49 q 529 56 529 32 q 535 101 529 76 q 545 138 540 125 q 563 181 550 150 q 578 219 575 213 q 593 180 582 207 q 610 138 604 153 q 620 99 615 122 q 625 54 625 75 m 354 358 q 336 338 351 356 q 317 315 321 319 q 300 295 314 311 q 281 275 286 279 q 261 258 275 271 q 239 242 247 246 q 217 229 231 238 q 191 218 203 221 q 165 213 179 215 q 135 210 150 210 l 115 225 q 124 264 115 246 q 151 295 132 282 q 185 317 169 308 q 230 333 200 325 q 274 344 260 340 q 319 352 288 347 q 354 358 350 357 m 449 261 q 442 228 447 254 q 433 184 438 201 q 422 140 429 167 q 406 94 415 113 q 386 58 397 76 q 359 29 375 39 q 325 19 343 19 l 304 47 q 328 136 304 94 q 377 202 351 178 q 449 261 403 226 z "},"*":{"ha":1207,"x_min":61,"x_max":1036,"o":"m 1036 639 q 1003 588 1036 610 q 939 565 969 565 q 900 582 915 565 q 885 622 885 599 q 915 668 885 653 q 979 683 944 683 q 1019 672 1003 683 q 1036 639 1036 661 m 606 900 q 550 835 606 835 q 494 904 494 835 q 509 960 494 932 q 550 989 524 989 q 592 961 579 989 q 606 900 606 933 m 857 122 q 846 88 857 101 q 815 75 835 75 q 756 107 786 75 q 726 167 726 139 q 744 203 726 188 q 782 219 761 219 q 835 187 813 219 q 857 122 857 154 m 211 626 q 197 585 211 601 q 158 568 182 568 q 94 590 126 568 q 61 642 61 611 q 77 674 61 663 q 115 686 93 686 q 181 672 150 686 q 211 626 211 657 m 375 171 q 345 111 375 140 q 285 82 315 82 q 255 94 267 82 q 243 126 243 107 q 267 190 243 156 q 319 224 292 224 q 358 208 340 224 q 375 171 375 192 z "},"+":{"ha":1304,"x_min":78,"x_max":1108,"o":"m 288 135 q 293 130 288 135 q 299 110 299 125 q 288 84 299 94 q 263 74 278 74 q 236 84 247 74 q 225 110 225 94 q 236 135 225 125 q 263 146 247 146 q 288 135 278 146 m 388 31 q 379 10 388 19 q 358 1 371 1 q 338 10 347 1 q 329 31 329 19 q 338 51 329 43 q 358 60 347 60 q 379 51 371 60 q 388 31 388 43 m 464 7 q 467 3 464 7 q 471 -10 471 0 q 464 -26 471 -19 q 447 -33 457 -33 q 431 -26 438 -33 q 424 -10 424 -19 q 431 7 424 0 q 447 14 438 14 q 464 7 457 14 m 1108 503 q 972 180 1108 313 q 644 47 836 47 q 343 173 467 47 q 219 476 219 299 q 336 753 219 640 q 617 865 453 865 q 871 759 767 865 q 975 503 975 653 q 878 274 975 368 q 644 181 781 181 q 438 267 522 181 q 354 476 354 354 q 432 658 354 585 q 618 732 510 732 q 776 665 711 732 q 840 503 840 597 q 781 368 840 424 q 643 313 722 313 q 533 362 578 313 q 488 476 488 411 q 526 563 488 526 q 617 600 565 600 q 681 572 653 600 q 708 508 708 544 q 691 457 708 481 q 647 432 674 433 l 622 464 q 642 487 625 475 q 660 508 660 499 q 646 540 660 525 q 615 554 632 554 q 560 532 585 554 q 535 479 535 510 q 565 400 535 435 q 640 365 596 365 q 742 406 699 365 q 786 503 786 446 q 736 626 786 574 q 617 679 686 679 q 469 622 531 679 q 408 479 408 564 q 476 310 408 381 q 642 239 543 239 q 833 316 753 239 q 913 504 913 393 q 826 717 913 629 q 615 806 740 806 q 379 711 478 806 q 281 478 281 617 q 385 219 281 326 q 642 113 490 113 q 924 226 807 113 q 1040 504 1040 340 q 917 808 1040 682 q 615 933 793 933 q 285 798 425 933 q 146 472 146 663 q 233 206 146 328 q 239 188 239 194 q 229 163 239 174 q 203 153 219 153 q 116 277 154 153 q 78 469 78 401 q 238 843 78 688 q 617 999 397 999 q 965 853 821 999 q 1108 503 1108 708 z "},",":{"ha":1139,"x_min":40,"x_max":994,"o":"m 982 553 q 988 541 982 553 q 994 501 994 529 q 982 449 994 474 q 944 405 969 425 q 902 374 919 385 q 854 346 885 363 q 819 324 842 338 q 733 272 797 311 q 608 197 668 233 q 473 118 549 161 q 339 44 397 75 q 233 -9 281 13 q 169 -31 186 -31 q 67 10 93 -31 q 40 138 40 50 l 40 835 q 44 904 40 875 q 60 965 49 933 q 98 1015 71 997 q 165 1032 125 1032 q 369 938 197 1032 q 697 751 540 844 l 853 658 q 901 631 882 643 q 945 598 921 618 q 982 553 969 578 z "},"-":{"ha":1413,"x_min":89,"x_max":1069,"o":"m 1069 497 q 1008 435 1069 458 q 899 411 946 411 q 883 428 883 411 q 889 466 883 442 q 894 503 894 490 q 889 539 894 515 q 883 574 883 563 q 894 588 883 588 q 965 581 928 588 q 1035 551 1001 574 q 1069 497 1069 529 m 669 814 q 658 799 669 799 q 618 808 644 799 q 576 817 592 817 q 536 810 563 817 q 496 804 510 804 q 485 814 485 804 q 513 921 485 858 q 579 983 542 983 q 643 921 617 983 q 669 814 669 858 m 667 185 q 642 75 667 135 q 575 15 617 15 q 510 76 533 15 q 488 188 488 136 q 496 199 488 199 q 535 190 508 199 q 576 182 563 182 q 615 188 589 182 q 654 194 642 194 q 667 185 667 194 m 271 422 q 250 411 271 411 q 149 439 210 411 q 89 501 89 467 q 144 566 89 542 q 249 590 200 590 q 268 575 268 590 q 262 534 268 561 q 256 493 256 507 q 263 458 256 481 q 271 422 271 435 z "},".":{"ha":1321,"x_min":124,"x_max":1078,"o":"m 1078 133 q 1053 8 1078 50 q 950 -33 1028 -33 q 740 61 911 -33 q 417 250 568 156 l 264 343 q 216 371 233 360 q 174 402 199 382 q 136 447 149 422 q 124 499 124 471 q 136 551 124 526 q 173 595 149 575 q 217 628 197 615 q 265 656 236 640 q 301 677 278 664 q 389 729 324 690 q 515 803 454 768 q 652 882 575 839 q 788 956 729 925 q 892 1008 846 986 q 953 1029 939 1029 q 1051 977 1024 1029 q 1078 832 1078 925 l 1078 133 z "},"/":{"ha":1469,"x_min":74,"x_max":1263,"o":"m 1263 490 q 1232 411 1263 444 q 1217 403 1226 406 q 1192 399 1207 400 q 1165 399 1178 399 q 1134 399 1153 399 q 1106 400 1115 400 q 1058 375 1088 400 q 990 315 1029 350 q 901 244 950 279 q 780 183 853 208 q 626 158 707 158 q 439 201 538 158 q 260 310 340 243 q 126 471 179 378 q 74 656 74 564 q 183 793 74 793 q 239 762 215 793 q 276 683 263 731 q 317 581 290 636 q 376 479 343 526 q 474 401 410 432 q 626 369 539 369 q 767 407 682 369 q 853 492 853 444 q 822 526 853 506 q 792 571 792 547 q 902 717 792 636 q 1081 797 1013 797 q 1207 684 1151 797 q 1263 490 1263 571 z "},":":{"ha":1179,"x_min":51,"x_max":1021,"o":"m 1021 583 q 1001 539 1021 539 q 983 551 994 539 q 960 578 972 563 q 944 599 949 594 q 924 613 942 600 q 895 638 907 626 q 883 657 883 650 q 901 670 883 665 q 931 675 919 675 q 997 651 974 675 q 1021 583 1021 626 m 686 960 q 698 948 686 960 q 710 893 710 936 q 690 850 710 850 q 672 861 683 850 q 649 888 661 872 q 633 908 638 904 q 614 923 632 910 q 585 948 596 936 q 574 967 574 960 q 591 980 574 975 q 619 985 608 985 q 686 960 663 985 m 813 660 q 795 647 813 651 q 767 642 778 642 q 700 666 724 642 q 676 733 676 690 q 696 778 676 778 q 714 767 703 778 q 737 740 725 756 q 753 719 749 724 q 772 703 756 717 q 801 678 789 690 q 813 660 813 667 m 501 968 q 490 949 501 961 q 461 924 479 938 q 442 908 443 910 q 426 888 439 906 q 403 860 414 871 q 385 850 392 850 q 365 893 365 850 q 390 960 365 936 q 457 985 414 985 q 501 968 501 985 m 1018 419 q 994 353 1018 376 q 928 329 971 329 q 881 346 881 329 q 892 365 881 353 q 921 389 904 376 q 942 406 938 401 q 958 425 946 410 q 981 452 969 440 q 999 464 992 464 q 1018 419 1018 464 m 400 733 q 376 666 400 690 q 308 642 351 642 q 280 647 297 642 q 263 660 263 651 q 274 678 263 667 q 303 703 286 690 q 324 719 319 715 q 338 738 326 722 q 361 766 350 754 q 379 778 372 778 q 400 733 400 778 m 813 346 q 801 327 813 339 q 772 302 789 315 q 753 286 756 289 q 737 266 749 282 q 714 239 725 250 q 696 228 703 228 q 676 272 676 228 q 700 339 676 315 q 767 363 724 363 q 813 346 813 363 m 710 111 q 686 44 710 68 q 619 21 663 21 q 574 38 574 21 q 585 56 574 44 q 614 81 597 68 q 633 97 631 94 q 649 117 638 101 q 672 144 661 133 q 690 156 683 156 q 710 111 710 156 m 192 657 q 180 638 192 650 q 151 614 168 626 q 131 597 135 601 q 115 577 126 593 q 92 550 103 561 q 74 539 81 539 q 54 583 54 539 q 78 650 54 626 q 144 674 101 674 q 192 657 192 674 m 397 269 q 378 226 397 226 q 358 238 369 226 q 335 265 347 249 q 319 285 322 282 q 299 301 315 289 q 272 326 283 314 q 260 344 260 338 q 306 361 260 361 q 374 338 350 361 q 397 269 397 314 m 500 38 q 454 21 500 21 q 363 111 363 21 q 382 156 363 156 q 401 144 390 156 q 424 117 413 133 q 439 97 435 101 q 460 81 443 93 q 488 56 476 68 q 500 38 500 44 m 189 346 q 142 329 189 329 q 75 353 99 329 q 51 419 51 376 q 71 464 51 464 q 90 453 79 464 q 113 426 101 442 q 128 406 124 410 q 149 389 132 401 q 177 365 165 376 q 189 346 189 353 z "},";":{"ha":1469,"x_min":78,"x_max":1128,"o":"m 629 -24 q 434 9 479 -24 q 389 169 389 42 q 378 239 389 213 q 340 276 367 265 q 290 290 313 288 q 219 292 267 292 q 106 342 135 292 q 78 499 78 392 q 82 603 78 568 q 103 669 86 639 q 155 708 121 699 q 250 718 189 718 q 364 750 333 718 q 394 865 394 782 q 432 997 394 967 q 596 1028 469 1028 q 776 993 733 1028 q 819 846 819 958 q 851 742 819 765 q 967 718 883 718 q 1056 706 1022 718 q 1104 663 1089 694 q 1124 597 1119 632 q 1128 497 1128 563 q 1097 334 1128 375 q 954 293 1067 293 q 854 263 892 293 q 817 172 817 233 q 780 17 817 57 q 629 -24 743 -24 m 1008 503 q 978 582 1008 560 q 908 601 947 604 q 817 606 868 599 q 738 644 767 614 q 709 716 715 668 q 704 804 703 764 q 683 876 706 844 q 604 907 660 907 q 528 875 550 907 q 507 802 506 843 q 501 712 508 761 q 468 636 493 663 q 394 606 443 611 q 306 603 346 600 q 234 583 265 607 q 203 497 203 558 q 234 424 203 446 q 306 404 265 403 q 394 399 346 406 q 468 367 443 392 q 503 292 494 340 q 510 203 511 243 q 532 131 510 163 q 608 100 554 100 q 684 131 663 100 q 703 203 706 163 q 708 292 701 243 q 740 368 714 342 q 816 401 767 394 q 906 406 865 408 q 977 426 946 404 q 1008 503 1008 449 z "},"<":{"ha":1215,"x_min":22,"x_max":1083,"o":"m 1083 153 q 1066 85 1083 111 q 1016 47 1049 58 q 955 33 983 36 q 885 29 926 29 l 188 29 q 63 54 104 29 q 22 157 22 79 q 117 363 22 192 q 306 689 211 535 l 399 843 q 553 983 474 983 q 622 958 589 983 q 672 906 656 932 q 711 842 689 881 q 733 806 719 829 q 785 718 746 783 q 858 592 824 653 q 936 454 893 531 q 1010 319 979 378 q 1063 214 1042 261 q 1083 153 1083 167 z "},"=":{"ha":1311,"x_min":86,"x_max":1107,"o":"m 1107 499 q 956 137 1107 285 q 590 -11 804 -11 q 235 141 385 -11 q 86 499 86 293 q 235 858 86 706 q 590 1010 383 1010 q 956 862 804 1010 q 1107 499 1107 714 m 729 496 q 691 594 729 556 q 594 632 653 632 q 501 595 538 632 q 465 501 465 558 q 503 405 465 443 q 599 367 540 367 q 692 403 656 367 q 729 496 729 439 z "},">":{"ha":1200,"x_min":15,"x_max":1076,"o":"m 1076 844 q 983 641 1076 813 q 797 314 890 469 l 704 157 q 666 92 683 118 q 615 40 649 65 q 546 15 582 15 q 495 28 519 15 q 451 65 471 40 q 418 108 431 89 q 390 154 406 126 q 369 188 382 167 q 317 274 356 210 q 242 398 278 339 q 164 533 207 457 q 90 667 121 608 q 37 774 58 726 q 15 840 15 822 q 56 944 15 919 q 196 969 96 969 l 865 969 q 1024 944 971 969 q 1076 844 1076 918 z "},"?":{"ha":1525,"x_min":100,"x_max":1288,"o":"m 1288 389 q 1178 253 1288 253 q 1130 276 1150 253 q 1094 337 1110 300 q 1063 419 1079 374 q 1022 509 1047 464 q 961 591 996 554 q 868 651 926 628 q 735 675 810 675 q 593 638 678 675 q 508 553 508 601 q 539 518 508 539 q 569 474 569 497 q 459 329 569 410 q 281 249 349 249 q 188 308 232 249 q 122 438 144 368 q 100 554 100 507 q 121 626 100 606 q 192 647 142 647 q 224 647 203 647 q 256 646 246 646 q 302 671 272 646 q 372 731 332 696 q 461 801 411 767 q 583 861 511 836 q 735 886 656 886 q 1029 794 900 886 q 1236 549 1158 703 q 1288 389 1288 449 z "},"@":{"ha":1497,"x_min":69,"x_max":1292,"o":"m 1292 425 q 1283 403 1292 411 q 1261 394 1274 394 q 1211 413 1247 394 q 1151 432 1175 432 q 1107 413 1131 432 q 1049 393 1083 393 q 1015 406 1039 393 q 964 418 992 418 q 928 403 946 418 q 888 389 911 389 q 849 394 875 389 q 808 400 822 400 l 796 389 q 809 350 796 375 q 822 311 822 325 q 800 293 822 293 q 743 310 767 293 q 706 326 719 326 q 683 307 699 326 q 643 288 668 288 q 608 303 622 288 q 588 335 594 318 q 567 368 582 353 q 528 383 551 383 q 482 371 511 383 q 438 358 453 358 q 403 374 422 358 q 356 389 385 389 q 311 381 340 389 q 267 374 282 374 q 235 390 251 374 q 199 407 219 407 q 138 398 178 407 q 76 389 97 389 q 73 399 76 390 q 69 410 69 407 q 122 633 69 476 q 222 790 175 790 q 314 767 271 790 q 382 717 357 744 q 435 665 407 689 q 485 642 464 642 l 506 650 q 483 701 506 657 q 460 782 460 744 q 473 835 460 810 q 486 876 486 860 q 504 921 486 921 q 538 901 519 921 q 568 881 556 881 q 623 902 589 881 q 678 924 657 924 q 696 906 696 924 q 692 887 696 900 q 689 867 689 874 q 702 827 689 854 q 715 779 715 800 q 699 714 715 751 q 682 675 682 676 q 691 660 682 667 q 708 653 700 653 q 790 700 738 653 q 898 794 842 747 q 994 842 954 842 q 1169 664 1047 842 q 1292 425 1292 486 m 663 782 q 651 803 663 796 q 626 811 640 811 q 593 785 593 811 q 603 763 593 772 q 626 754 614 754 q 663 782 663 754 m 565 785 q 555 806 565 797 q 531 814 544 814 q 497 786 497 814 q 507 764 497 772 q 531 756 517 756 q 555 763 544 756 q 565 785 565 771 z "},"A":{"ha":1332,"x_min":88,"x_max":1125,"o":"m 972 872 q 1049 797 972 872 q 1125 497 1125 721 q 977 124 1125 274 q 607 -25 829 -25 q 236 128 385 -25 q 88 504 88 282 q 232 874 88 724 q 594 1024 376 1024 q 972 872 819 1024 m 929 685 q 897 775 929 739 q 811 811 864 811 q 724 777 757 811 q 690 690 690 743 q 724 601 690 638 q 811 564 758 564 q 894 600 858 564 q 929 685 929 636 m 522 690 q 490 781 522 744 q 403 818 457 818 q 317 783 350 818 q 283 696 283 749 q 317 608 283 644 q 403 571 351 571 q 487 606 451 571 q 522 690 522 642 m 1050 379 q 1014 455 1050 426 q 931 483 978 483 q 899 460 918 483 q 856 405 881 438 q 800 339 832 372 q 716 283 768 306 q 601 260 664 260 q 491 283 540 260 q 414 339 442 306 q 365 405 386 372 q 328 460 344 438 q 297 483 311 483 q 215 451 251 483 q 179 374 179 419 q 254 219 179 294 q 427 100 329 143 q 601 57 525 57 q 824 119 718 57 q 1003 282 929 182 q 1050 379 1050 349 z "},"B":{"ha":1400,"x_min":94,"x_max":1181,"o":"m 1181 521 q 1138 416 1181 444 q 1013 388 1094 388 l 613 388 q 569 369 569 388 q 583 343 569 360 q 612 298 597 326 q 626 232 626 269 q 593 139 626 172 q 500 106 560 106 q 432 127 468 106 q 373 170 396 149 q 313 231 350 192 q 265 282 276 271 q 215 330 254 293 q 155 389 175 367 q 115 447 135 411 q 94 515 94 482 q 107 574 94 546 q 133 617 119 601 q 174 661 146 633 l 343 829 q 363 849 346 832 q 385 870 381 867 q 405 887 390 874 q 428 904 419 900 q 451 915 436 908 q 479 924 465 922 q 508 926 493 926 q 594 894 563 926 q 626 807 626 861 q 612 735 626 764 q 583 691 597 706 q 568 668 568 676 q 571 655 568 660 q 581 648 574 650 q 592 645 588 646 q 607 645 597 644 q 618 646 617 646 l 1013 646 q 1181 521 1181 646 z "},"C":{"ha":1353,"x_min":74,"x_max":1158,"o":"m 1158 517 q 1061 454 1158 454 l 517 454 q 389 379 389 454 q 449 286 389 351 q 508 186 508 221 q 443 132 508 132 q 412 145 432 132 q 367 182 392 158 q 322 226 343 206 q 278 270 301 246 q 251 299 256 294 q 206 341 244 306 q 144 401 168 376 q 97 458 119 425 q 74 514 74 492 q 94 567 74 536 q 133 619 114 599 q 189 673 153 639 q 229 711 225 707 q 260 743 236 718 q 310 792 285 768 q 362 842 335 817 q 411 884 389 868 q 444 900 433 900 q 489 885 471 900 q 507 842 507 869 q 449 747 507 806 q 392 646 392 688 q 528 576 392 576 l 1067 576 q 1158 517 1158 576 z "},"D":{"ha":1217,"x_min":47,"x_max":1053,"o":"m 1051 897 l 1051 733 q 989 621 1051 621 q 940 639 957 621 q 920 678 924 657 q 908 717 917 699 q 882 735 899 735 q 803 668 864 735 q 742 582 742 601 q 747 538 742 557 q 762 494 751 519 q 778 454 772 469 q 794 325 794 404 q 688 59 794 160 q 414 -42 581 -42 q 148 65 249 -42 q 47 338 47 172 q 148 597 47 492 q 403 701 249 701 q 526 691 472 701 q 593 681 581 681 q 685 752 615 681 q 754 846 754 824 q 742 875 754 864 q 716 890 731 886 q 690 910 701 894 q 678 950 678 925 q 699 999 678 982 q 753 1015 719 1015 l 990 1015 q 1026 1006 1013 1015 q 1044 976 1039 996 q 1050 942 1049 956 q 1051 903 1051 928 q 1051 897 1051 899 m 654 325 q 592 508 654 439 q 418 576 531 576 q 253 508 319 576 q 186 339 186 439 q 248 156 186 225 q 422 86 310 86 q 589 154 524 86 q 654 325 654 222 z "},"E":{"ha":1131,"x_min":92,"x_max":936,"o":"m 936 685 q 901 601 936 635 q 815 568 865 568 q 729 585 767 568 q 692 646 692 603 q 731 747 692 703 q 826 792 769 792 q 905 762 874 792 q 936 685 936 732 m 625 864 q 589 773 625 822 q 513 724 553 724 q 440 773 474 724 q 406 864 406 822 q 436 946 406 914 q 517 978 467 978 q 593 943 561 978 q 625 864 625 908 m 936 318 q 903 244 936 272 q 824 217 871 217 q 729 263 767 217 q 692 368 692 310 q 826 440 692 440 q 904 403 872 440 q 936 318 936 365 m 621 503 q 590 429 621 460 q 517 399 560 399 q 440 427 471 399 q 410 501 410 456 q 438 578 410 547 q 511 610 467 610 q 589 579 557 610 q 621 503 621 549 m 338 642 q 301 585 338 603 q 219 568 264 568 q 128 598 164 568 q 93 682 93 628 q 124 763 93 735 q 207 792 154 792 q 298 744 258 792 q 338 642 338 696 m 626 147 q 594 65 626 101 q 517 28 563 28 q 440 63 472 28 q 407 142 407 97 q 440 236 407 189 q 518 283 474 283 q 590 234 554 283 q 626 147 626 185 m 336 364 q 296 260 336 307 q 200 214 256 214 q 121 247 150 214 q 92 331 92 281 q 128 409 92 375 q 210 443 164 443 q 297 425 258 443 q 336 364 336 407 z "},"F":{"ha":1046,"x_min":96,"x_max":856,"o":"m 856 642 q 806 451 856 538 q 667 313 757 364 q 626 294 663 310 q 574 263 589 278 q 558 221 558 247 l 558 160 q 576 91 558 113 q 617 67 593 69 q 666 64 642 65 q 708 47 690 63 q 725 -10 725 31 q 639 -83 725 -83 q 574 -108 593 -83 q 555 -162 554 -133 q 540 -217 556 -192 q 482 -242 524 -242 q 431 -226 447 -242 q 412 -186 415 -210 q 404 -139 408 -162 q 378 -99 400 -115 q 315 -83 357 -83 q 258 -63 281 -83 q 236 -10 236 -43 q 262 53 236 38 q 318 67 288 69 q 374 85 349 64 q 400 160 400 106 l 400 221 q 396 247 400 236 q 379 267 392 258 q 361 278 367 275 q 336 290 356 281 q 96 650 96 401 q 206 913 96 807 q 474 1019 317 1019 q 748 914 640 1019 q 856 642 856 808 m 711 647 q 643 821 711 753 q 469 889 575 889 q 308 815 371 889 q 244 642 244 742 q 310 467 244 535 q 482 399 375 399 q 648 472 585 399 q 711 647 711 544 z "},"G":{"ha":1213,"x_min":101,"x_max":1001,"o":"m 1001 768 q 940 521 1001 628 q 756 288 878 414 q 624 136 667 196 q 608 113 621 132 q 585 80 594 93 q 562 55 575 67 q 539 43 549 43 q 508 75 532 43 q 453 151 483 107 q 422 197 422 196 q 346 292 399 231 q 270 382 289 360 q 208 464 251 404 q 149 562 165 524 q 117 659 133 600 q 101 778 101 718 q 142 909 101 857 q 261 961 183 961 q 385 935 335 961 q 456 877 436 908 q 499 819 476 846 q 546 793 522 793 q 581 810 564 793 q 617 853 599 828 q 660 902 635 878 q 731 944 685 926 q 838 961 776 961 q 960 907 919 961 q 1001 768 1001 853 z "},"H":{"ha":1424,"x_min":46,"x_max":1249,"o":"m 1249 489 q 1229 451 1249 464 q 1180 427 1210 438 q 1139 406 1150 417 q 1093 310 1126 394 q 1047 208 1060 226 q 1025 180 1040 197 q 1003 149 1010 163 q 996 113 996 135 q 1010 47 996 89 q 1025 -18 1025 4 q 989 -56 1025 -56 q 947 -40 963 -56 q 926 -5 932 -24 q 905 30 921 14 q 861 46 889 46 q 755 27 825 46 q 647 8 685 8 q 538 28 610 8 q 429 47 467 47 q 389 31 406 47 q 365 -6 372 14 q 344 -43 358 -26 q 311 -60 331 -60 q 265 -22 265 -60 q 283 40 265 0 q 300 103 300 81 q 286 150 300 124 q 249 208 272 176 q 219 251 226 239 q 194 325 210 269 q 165 397 178 381 q 120 428 151 417 q 67 452 89 440 q 46 490 46 464 q 68 534 46 524 q 123 554 90 544 q 174 592 156 564 q 191 639 182 607 q 204 679 200 671 q 305 828 233 760 q 458 925 376 897 q 492 934 464 926 q 532 949 519 942 q 567 979 549 958 q 603 1013 585 1000 q 649 1025 621 1025 q 726 987 686 1025 q 785 940 765 949 q 811 929 793 936 q 924 878 888 897 q 1003 817 960 860 q 1078 711 1046 775 q 1094 669 1081 704 q 1119 606 1107 633 q 1136 572 1131 578 q 1181 553 1150 560 q 1230 533 1211 546 q 1249 489 1249 521 m 989 615 q 918 752 989 678 q 785 826 847 826 q 763 786 763 826 q 778 690 763 744 q 828 590 793 636 q 907 544 864 544 q 971 558 953 544 q 989 615 989 571 m 992 376 q 981 410 992 397 q 950 424 969 424 q 903 371 903 424 q 917 335 903 354 q 947 315 932 315 q 980 335 968 315 q 992 376 992 354 m 710 603 q 689 672 710 631 q 643 713 668 713 q 603 669 622 713 q 583 601 583 626 q 646 546 583 546 q 710 603 710 546 m 533 790 q 513 822 533 822 q 371 751 438 822 q 304 604 304 681 q 392 544 304 544 q 445 565 422 544 q 476 603 468 585 q 499 657 485 621 q 533 790 533 746 m 847 206 q 836 265 847 228 q 814 328 825 301 l 801 354 q 743 420 776 404 q 647 436 710 436 q 551 419 588 436 q 489 351 514 401 q 461 273 478 326 q 444 200 444 219 q 646 107 444 107 q 708 109 683 107 q 770 119 733 111 q 827 149 807 128 q 847 206 847 171 m 390 375 q 349 422 390 422 q 301 372 301 422 q 314 333 301 351 q 347 314 326 314 q 378 334 367 314 q 390 375 390 354 z "},"I":{"ha":1101,"x_min":86,"x_max":915,"o":"m 582 492 q 557 553 582 529 q 494 576 532 576 q 432 554 457 576 q 407 496 407 532 q 432 435 407 458 q 494 413 457 413 q 557 434 532 413 q 582 492 582 456 m 806 444 q 633 350 728 371 l 614 347 q 582 338 593 343 q 571 322 571 332 q 693 279 571 279 q 773 294 721 279 q 851 308 825 308 q 892 271 892 308 q 840 208 892 231 q 740 186 788 186 q 543 232 631 186 q 485 271 510 250 q 458 295 479 275 q 419 331 438 315 q 393 347 400 347 q 378 324 378 347 q 395 255 378 294 q 435 193 413 215 q 522 67 522 94 q 475 39 522 39 q 378 101 424 39 q 314 225 333 163 q 296 338 296 283 q 313 453 296 397 q 331 514 331 513 q 315 525 331 525 q 290 517 301 525 q 261 490 278 510 q 243 469 244 471 q 212 415 226 453 q 188 343 197 376 q 160 284 178 310 q 121 258 143 258 q 86 335 86 258 q 115 442 86 386 q 186 538 144 497 q 365 635 256 606 q 377 638 368 635 q 394 642 386 640 q 410 648 401 644 q 423 656 418 651 q 428 665 428 660 q 324 708 428 708 q 243 697 296 708 q 164 685 190 685 q 111 718 111 685 q 131 760 111 742 q 183 785 151 778 q 240 797 214 793 q 288 800 265 800 q 417 774 356 800 q 514 717 479 747 q 575 660 549 686 q 608 633 601 633 q 625 663 625 633 q 590 761 625 711 q 519 853 554 811 q 483 922 483 894 q 519 946 483 946 q 590 918 553 946 q 678 800 647 875 q 708 647 708 725 q 692 543 708 600 q 681 510 690 539 q 671 474 671 482 q 683 463 671 463 q 749 503 719 463 q 794 592 779 543 q 830 682 810 642 q 869 722 850 722 q 900 711 889 722 q 913 688 911 700 q 915 654 915 675 q 887 544 914 590 q 806 444 860 497 z "},"J":{"ha":1232,"x_min":58,"x_max":1063,"o":"m 1063 499 q 1044 445 1063 471 q 1008 407 1025 419 q 952 372 990 394 q 907 344 914 349 q 725 163 800 274 q 694 113 717 151 q 659 58 672 75 q 619 24 646 42 q 558 7 592 7 q 513 16 533 7 q 475 46 493 25 q 447 81 457 67 q 420 125 436 96 q 399 164 404 154 q 331 253 367 217 q 234 319 308 275 q 109 407 160 363 q 58 499 58 451 q 68 545 58 524 q 101 587 78 567 q 138 617 124 607 q 187 647 153 628 q 226 671 221 667 q 313 738 275 701 q 378 827 332 757 q 469 944 424 897 q 558 992 514 992 q 615 972 588 992 q 659 932 643 951 q 700 874 675 913 q 732 826 725 835 q 815 726 769 772 q 882 678 836 707 q 965 628 928 650 q 1033 571 1003 606 q 1063 499 1063 536 z "},"K":{"ha":1050,"x_min":46,"x_max":908,"o":"m 765 814 q 788 783 788 814 q 764 732 788 753 q 710 711 740 711 q 689 735 689 711 q 713 788 689 763 q 765 814 738 814 m 908 499 q 891 470 908 479 q 853 461 874 461 q 810 470 829 461 q 790 500 790 479 q 809 529 790 519 q 850 539 828 539 q 890 529 872 539 q 908 499 908 519 m 508 910 q 513 901 508 910 q 518 871 518 892 q 508 831 518 850 q 478 813 497 813 q 449 831 458 813 q 439 872 439 850 q 449 912 439 894 q 478 929 458 929 q 508 910 497 929 m 618 499 q 577 400 618 439 q 476 361 536 361 q 377 401 415 361 q 339 504 339 442 q 379 600 339 563 q 479 638 419 638 q 579 599 540 638 q 618 499 618 560 m 246 788 q 258 777 246 788 q 269 739 269 767 q 240 711 269 711 q 188 732 211 711 q 164 781 164 753 q 194 810 164 810 q 246 788 222 810 m 767 266 q 779 255 767 266 q 790 217 790 244 q 761 189 790 189 q 708 210 732 189 q 685 258 685 231 q 715 288 685 288 q 767 266 744 288 m 518 131 q 508 90 518 108 q 478 71 497 71 q 449 90 458 71 q 439 132 439 108 q 449 171 439 153 q 478 189 458 189 q 508 170 497 189 q 518 131 518 151 m 164 499 q 147 470 164 479 q 108 461 129 461 q 65 470 85 461 q 46 500 46 479 q 65 529 46 519 q 106 539 83 539 q 146 529 128 539 q 164 499 164 519 m 264 260 q 240 208 264 229 q 186 186 217 186 q 165 210 165 186 q 190 263 165 238 q 242 289 214 289 q 264 260 264 289 z "},"L":{"ha":1207,"x_min":86,"x_max":1011,"o":"m 1011 349 q 969 237 1011 307 q 889 167 928 167 q 824 183 867 167 q 758 200 782 200 q 692 181 713 200 q 669 136 672 163 q 663 83 667 110 q 631 38 658 57 q 549 19 604 19 q 463 38 490 19 q 433 83 436 57 q 428 136 429 110 q 406 181 426 163 q 338 200 386 200 q 270 183 311 200 q 214 165 229 165 q 128 225 171 165 q 86 329 86 285 q 114 389 86 365 q 169 435 142 413 q 196 490 196 457 q 178 551 196 526 q 141 588 161 576 q 103 617 121 599 q 86 661 86 636 q 128 768 86 706 q 213 831 171 831 q 275 814 235 831 q 338 797 315 797 q 406 817 385 797 q 428 863 426 836 q 435 917 431 890 q 464 964 439 944 q 543 983 489 983 q 633 964 604 983 q 665 917 661 944 q 670 862 668 889 q 692 815 672 835 q 761 796 713 796 q 825 815 785 796 q 888 835 865 835 q 966 768 924 835 q 1008 663 1008 701 q 991 617 1008 639 q 952 582 974 596 q 913 547 931 568 q 896 501 896 525 q 914 451 896 475 q 953 410 932 426 q 993 378 975 394 q 1011 349 1011 361 m 906 671 q 887 720 906 703 q 836 738 868 738 q 761 704 800 738 q 692 671 722 671 q 622 740 622 671 q 628 788 622 756 q 633 838 633 821 q 606 893 633 869 q 547 917 579 917 q 490 892 519 917 q 460 840 460 868 q 466 789 460 822 q 472 738 472 756 q 410 671 472 671 q 333 704 374 671 q 260 738 293 738 q 208 723 231 738 q 186 679 186 708 q 211 617 186 640 q 267 585 236 593 q 322 556 297 576 q 347 501 347 535 q 322 444 347 467 q 268 414 297 422 q 214 383 239 406 q 189 322 189 360 q 261 261 189 261 q 333 294 294 261 q 406 328 371 328 q 472 261 472 328 q 468 217 472 247 q 464 172 464 188 q 489 111 464 138 q 549 85 514 85 q 606 109 581 85 q 631 165 631 133 q 626 213 631 181 q 621 260 621 244 q 688 326 621 326 q 763 293 722 326 q 832 260 804 260 q 903 325 903 260 q 878 384 903 361 q 825 416 854 407 q 772 444 796 425 q 747 494 747 464 q 772 551 747 529 q 826 581 797 572 q 881 613 856 590 q 906 671 906 635 z "},"M":{"ha":1613,"x_min":93,"x_max":1374,"o":"m 1374 519 q 1322 442 1374 465 q 1207 418 1269 418 l 738 418 q 669 401 692 418 q 644 361 647 385 q 640 314 640 338 q 624 274 639 290 q 575 257 610 257 q 467 298 533 257 q 386 344 401 339 q 309 367 368 351 q 208 397 250 383 q 130 440 167 410 q 93 508 93 469 q 110 581 93 551 q 160 628 128 611 q 222 653 192 644 q 296 672 253 663 q 363 692 339 682 q 425 722 378 697 q 513 767 472 747 q 568 788 554 788 q 623 771 606 788 q 642 730 640 754 q 648 682 644 706 q 671 642 651 658 q 732 625 690 625 l 1203 625 q 1374 519 1374 625 z "},"N":{"ha":1474,"x_min":114,"x_max":1228,"o":"m 1217 544 q 1222 540 1217 544 q 1228 521 1228 536 q 1217 496 1228 506 q 1190 486 1206 486 q 1165 494 1176 486 q 1154 517 1154 503 q 1165 542 1154 532 q 1192 553 1176 553 q 1217 544 1206 553 m 1065 521 q 1054 492 1065 504 q 1026 479 1043 479 q 994 492 1007 479 q 982 522 982 504 q 993 550 982 539 q 1021 561 1004 561 q 1052 550 1039 561 q 1065 521 1065 539 m 888 517 q 839 471 888 471 q 793 518 793 471 q 843 567 793 567 q 878 555 868 567 q 888 517 888 543 m 706 521 q 695 480 706 492 q 656 468 685 468 q 613 478 625 468 q 601 521 601 489 q 614 562 601 551 q 660 572 626 572 q 697 560 688 572 q 706 521 706 549 m 528 817 q 475 725 528 778 q 422 631 422 672 q 438 607 422 615 q 474 595 454 599 q 510 574 494 592 q 526 524 526 556 q 510 472 526 490 q 474 451 494 454 q 438 435 454 447 q 422 397 422 422 q 474 323 422 376 q 526 233 526 269 q 468 165 526 165 q 271 323 428 165 q 114 521 114 481 q 270 721 114 563 q 467 879 426 879 q 515 865 501 879 q 528 817 528 851 z "},"O":{"ha":1218,"x_min":81,"x_max":1028,"o":"m 1028 635 q 991 528 1028 586 q 917 425 954 471 q 881 357 881 379 q 913 333 881 333 q 940 336 922 333 q 967 339 958 339 q 1010 306 1010 339 q 950 192 1010 247 q 832 138 890 138 q 732 145 799 138 q 632 153 665 153 q 575 131 575 153 q 601 93 575 119 q 626 39 626 67 q 540 18 626 18 q 438 45 481 18 q 373 111 396 72 q 333 189 350 150 q 297 255 317 228 q 250 282 276 282 q 222 238 238 282 q 183 193 207 193 q 117 263 153 193 q 81 369 81 333 q 122 480 81 418 q 203 592 163 542 q 244 660 244 642 q 207 679 244 679 q 176 676 197 679 q 144 674 154 674 q 113 693 113 674 q 172 806 113 749 q 286 864 231 864 q 414 853 329 864 q 540 842 499 842 q 564 853 564 842 q 531 900 564 864 q 499 954 499 936 q 568 982 499 982 q 674 954 629 982 q 742 886 718 926 q 782 806 765 846 q 815 738 799 765 q 849 710 831 710 q 872 724 864 710 q 883 757 881 739 q 898 790 886 775 q 929 804 910 804 q 995 739 963 804 q 1028 635 1028 674 m 953 600 q 918 649 953 649 q 889 624 904 649 q 861 570 874 600 q 826 516 849 540 q 776 492 803 492 l 768 501 q 776 573 768 524 q 785 649 785 622 q 776 731 785 689 q 751 813 768 772 q 701 880 733 854 q 624 906 668 906 q 599 883 599 906 q 643 786 599 847 q 688 686 688 725 q 672 663 688 663 q 636 686 663 663 q 578 738 610 710 q 492 789 546 765 q 379 813 438 813 q 267 760 267 813 q 321 736 267 742 q 429 720 375 731 q 483 681 483 710 q 418 650 483 663 q 233 560 310 625 q 156 393 156 494 q 182 357 156 357 q 222 379 204 357 q 248 428 239 401 q 276 476 257 454 q 319 499 294 499 q 331 481 331 499 q 324 408 331 456 q 317 338 317 361 q 370 176 317 263 q 493 89 424 89 q 524 121 524 89 q 502 165 524 140 q 458 226 481 190 q 436 303 436 261 l 440 310 q 618 211 565 231 q 757 186 686 186 q 825 203 783 186 q 867 242 867 219 q 810 271 867 267 q 696 279 753 275 q 639 307 639 283 q 646 322 639 315 q 665 335 653 329 q 688 344 678 340 q 713 351 699 347 q 729 356 726 354 q 882 453 811 383 q 953 600 953 522 z "},"P":{"ha":1140,"x_min":99,"x_max":939,"o":"m 939 322 q 909 247 939 282 q 839 211 879 211 q 769 227 814 211 q 700 243 725 243 q 651 210 667 243 q 630 140 635 178 q 598 69 625 101 q 519 36 571 36 q 443 69 469 36 q 411 140 417 101 q 388 210 406 178 q 338 243 371 243 q 273 226 314 243 q 208 210 232 210 q 128 242 158 210 q 99 325 99 274 q 118 380 99 356 q 160 419 138 404 q 203 455 183 433 q 222 501 222 476 q 203 549 222 528 q 162 583 185 569 q 120 622 139 597 q 101 678 101 646 q 131 760 101 728 q 210 793 160 793 q 274 776 233 793 q 339 760 315 760 q 390 792 374 760 q 410 864 406 825 q 440 935 414 903 q 517 968 465 968 q 592 946 565 968 q 626 892 618 924 q 638 831 633 861 q 658 778 643 800 q 703 756 672 756 q 763 774 724 756 q 835 792 803 792 q 908 756 878 792 q 939 678 939 721 q 908 612 939 643 q 848 553 878 581 q 818 501 818 526 q 837 453 818 476 q 878 416 856 431 q 920 376 901 401 q 939 322 939 351 z "},"Q":{"ha":1296,"x_min":61,"x_max":1118,"o":"m 1118 614 q 1093 549 1118 578 q 1033 497 1068 519 q 963 452 997 475 q 903 397 928 429 q 878 324 878 364 q 912 196 878 279 q 946 67 946 113 q 865 -10 946 -10 q 790 13 828 -10 q 728 65 753 36 q 665 116 703 93 q 590 139 628 139 q 514 116 551 139 q 450 65 476 93 q 386 13 424 36 q 310 -10 349 -10 q 252 13 275 -10 q 229 69 229 35 q 263 199 229 114 q 297 333 297 283 q 273 399 297 369 q 214 451 249 429 q 144 494 179 472 q 85 546 110 515 q 61 614 61 576 q 200 692 61 692 q 240 690 213 692 q 282 689 268 689 q 407 717 374 689 q 451 790 432 738 q 482 891 471 843 q 519 977 493 939 q 586 1015 546 1015 q 657 978 631 1015 q 692 895 683 942 q 719 796 701 849 q 765 719 738 743 q 890 686 803 686 q 942 688 908 686 q 993 689 976 689 q 1036 687 1018 689 q 1075 678 1054 685 q 1107 655 1096 671 q 1118 614 1118 639 m 822 531 q 806 560 822 550 q 756 577 789 571 q 721 585 724 583 q 648 641 696 593 q 590 689 600 689 q 526 642 569 689 q 460 588 482 596 q 426 578 456 586 q 376 562 396 571 q 357 540 357 553 q 370 495 357 515 q 399 463 383 475 q 428 426 415 451 q 442 368 442 401 q 440 333 442 356 q 439 300 439 311 q 465 261 439 261 q 526 275 486 261 q 589 289 567 289 q 646 275 608 289 q 704 261 683 261 q 740 310 740 261 q 739 338 740 319 q 738 365 738 357 q 780 460 738 411 q 822 531 822 508 z "},"R":{"ha":1181,"x_min":54,"x_max":1019,"o":"m 1019 582 q 967 519 1019 549 q 878 490 915 490 q 840 513 854 490 q 826 563 826 536 q 871 610 826 594 q 956 626 915 626 q 1019 582 1019 626 m 590 833 q 578 778 590 796 q 529 761 565 761 q 481 780 493 761 q 469 836 469 799 q 484 918 469 878 q 532 958 499 958 q 578 917 565 958 q 590 833 590 876 m 796 451 q 775 372 796 432 q 742 307 754 313 q 718 303 731 303 q 692 306 708 303 q 667 308 675 308 q 635 297 643 308 q 628 271 628 286 q 625 240 628 256 q 603 213 622 224 q 543 201 583 201 q 450 213 463 201 q 436 248 438 224 q 426 288 435 272 q 385 304 418 304 q 360 301 376 304 q 335 299 343 299 q 291 364 314 299 q 268 458 268 429 q 301 492 268 475 q 333 524 333 510 q 328 554 333 533 q 324 586 324 575 q 376 651 324 610 q 453 693 428 693 q 492 674 469 693 q 528 656 514 656 q 570 675 547 656 q 604 694 593 694 q 680 649 624 694 q 736 586 736 603 q 730 554 736 575 q 724 524 724 533 q 760 483 724 503 q 796 451 796 464 m 849 83 q 837 51 849 65 q 808 38 825 38 q 732 83 776 38 q 688 161 688 129 q 710 201 688 182 q 754 221 733 221 q 817 168 785 221 q 849 83 849 115 m 247 564 q 233 515 247 538 q 194 493 219 493 q 106 522 157 493 q 54 586 54 551 q 115 629 54 629 q 202 613 157 629 q 247 564 247 597 m 381 161 q 335 83 381 129 q 258 38 290 38 q 230 51 242 38 q 218 82 218 64 q 251 167 218 114 q 313 219 283 219 q 358 201 335 219 q 381 161 381 182 m 635 476 q 597 529 635 499 q 535 560 558 560 q 467 528 504 560 q 431 468 431 497 q 522 356 431 356 q 610 384 585 356 q 635 476 635 413 z "},"S":{"ha":1356,"x_min":83,"x_max":1149,"o":"m 1149 494 q 994 122 1149 275 q 619 -32 839 -32 q 239 119 394 -32 q 83 494 83 269 q 231 879 83 726 q 611 1032 379 1032 q 995 878 842 1032 q 1149 494 1149 724 m 1007 511 q 976 676 1007 589 q 881 830 946 763 q 736 897 817 897 q 671 758 671 897 q 697 593 671 633 q 819 482 713 567 q 947 397 925 397 q 981 408 968 397 q 999 439 994 418 q 1006 474 1004 460 q 1007 511 1007 488 m 908 235 q 833 333 908 271 q 719 396 757 396 q 674 269 674 396 l 674 229 q 736 103 674 103 q 846 147 783 103 q 908 235 908 190 m 492 894 q 346 826 411 894 q 251 671 281 758 q 221 504 221 583 q 222 466 221 481 q 229 433 224 451 q 249 406 235 415 q 288 397 264 397 q 409 480 306 397 q 532 588 513 563 q 545 614 540 599 q 553 642 550 629 q 557 676 556 654 q 558 708 558 699 q 558 742 558 718 q 558 771 558 767 q 492 894 558 894 m 504 396 q 396 331 471 396 q 321 233 321 267 q 385 147 321 190 q 496 103 450 103 q 556 194 558 103 l 556 289 q 525 390 551 374 q 504 396 517 396 z "},"T":{"ha":1103,"x_min":101,"x_max":901,"o":"m 901 318 q 870 269 901 288 q 798 243 839 250 q 709 220 757 236 q 636 179 661 204 q 601 133 625 168 q 553 78 576 99 q 501 58 531 58 q 438 87 468 58 q 387 149 408 115 q 326 212 365 183 q 239 240 288 240 q 103 322 103 240 q 126 407 103 351 q 149 493 149 463 q 125 588 149 528 q 101 679 101 649 q 240 774 101 774 q 330 801 290 774 q 390 863 369 829 q 440 925 411 897 q 499 953 468 953 q 551 934 528 953 q 592 890 574 915 q 630 838 610 864 q 685 792 650 811 q 765 774 719 774 q 860 753 819 774 q 900 685 900 733 q 875 600 900 654 q 850 510 850 546 q 876 411 850 472 q 901 318 901 350 m 654 511 q 608 617 654 572 q 500 663 561 663 q 392 613 435 663 q 350 497 350 564 q 394 391 350 431 q 507 351 439 351 q 612 399 569 351 q 654 511 654 447 z "},"U":{"ha":1189,"x_min":93,"x_max":989,"o":"m 814 468 q 706 540 814 540 q 676 540 696 540 q 647 539 657 539 l 625 550 q 687 596 625 560 q 749 656 749 632 q 725 712 749 688 q 669 736 701 736 q 634 717 650 736 q 610 675 618 697 q 589 633 601 653 q 564 614 576 614 q 533 640 543 614 q 522 695 524 665 q 507 751 521 725 q 467 776 493 776 q 415 752 436 776 q 394 696 394 728 q 413 645 394 676 q 432 596 432 614 l 426 586 q 386 605 413 588 q 349 622 360 622 q 290 598 315 622 q 265 540 265 574 q 360 471 265 471 q 398 472 372 471 q 436 474 424 474 l 467 463 q 432 433 465 451 q 365 394 399 415 q 332 353 332 372 q 356 297 332 321 q 411 274 379 274 q 445 292 432 274 q 465 334 458 311 q 486 376 471 357 q 525 394 501 394 q 562 354 556 394 q 575 274 568 314 q 614 235 582 235 q 667 259 644 235 q 689 314 689 283 q 663 358 689 328 q 635 407 636 388 q 660 428 640 428 q 698 408 675 428 q 733 388 721 388 q 790 412 765 388 q 814 468 814 436 m 989 661 q 966 569 989 613 q 901 501 943 526 q 986 342 986 450 q 931 217 986 267 q 800 167 875 167 q 719 189 760 167 l 719 164 q 665 53 719 100 q 547 6 611 6 q 418 60 471 6 q 363 190 365 114 q 279 169 325 169 q 149 220 204 169 q 93 346 93 271 q 117 438 93 394 q 181 504 140 481 q 117 568 142 528 q 93 653 93 608 q 145 785 93 731 q 274 840 197 840 q 310 836 288 840 q 350 828 333 832 l 365 824 q 374 843 368 831 q 400 887 381 856 q 439 942 419 918 q 488 985 458 965 q 543 1004 517 1004 q 666 949 617 1004 q 718 818 715 893 q 806 839 760 839 q 933 786 878 839 q 989 661 989 733 z "},"V":{"ha":1381,"x_min":82,"x_max":1174,"o":"m 1174 514 q 1155 459 1174 481 q 1101 428 1136 438 q 1032 415 1065 418 q 951 411 999 411 l 538 411 q 461 386 461 411 q 513 301 461 356 q 564 201 564 246 q 540 138 564 161 q 476 115 517 115 q 343 198 440 115 q 164 378 246 281 q 82 511 82 475 q 164 651 82 553 q 344 830 246 749 q 482 911 442 911 q 539 890 514 911 q 564 836 564 868 q 539 758 564 793 q 489 697 514 724 q 464 650 464 671 q 470 629 464 638 q 490 618 476 621 q 513 615 503 615 q 539 616 522 615 q 560 617 556 617 l 961 617 q 1036 614 1006 617 q 1102 601 1067 611 q 1156 570 1138 592 q 1174 514 1174 549 z "},"W":{"ha":1263,"x_min":69,"x_max":1079,"o":"m 1079 617 q 1059 540 1079 575 q 1011 480 1039 504 q 955 433 983 456 q 906 387 926 411 q 886 339 886 363 q 908 233 886 303 q 931 126 931 164 q 904 47 931 78 q 829 15 878 15 q 728 43 774 15 q 644 99 682 71 q 572 126 607 126 q 460 69 539 126 q 342 11 381 11 q 258 35 294 11 q 222 104 222 58 q 244 224 222 144 q 267 343 267 303 q 247 392 267 368 q 197 437 226 415 q 139 481 168 458 q 90 535 110 503 q 69 604 69 567 q 94 672 69 646 q 167 707 119 697 q 244 719 214 717 q 322 721 274 721 q 333 721 331 721 q 403 763 376 721 q 444 857 431 806 q 490 951 457 908 q 576 993 524 993 q 647 965 619 993 q 689 897 675 938 q 717 817 703 857 q 759 749 731 776 q 833 721 788 721 q 1079 617 1079 721 z "},"X":{"ha":1194,"x_min":74,"x_max":1013,"o":"m 1013 519 q 949 499 1013 499 l 397 499 q 310 469 349 499 q 272 393 272 439 q 325 303 272 365 q 379 226 378 242 q 378 224 378 226 q 376 221 378 221 q 290 277 364 221 q 145 407 217 333 q 74 518 74 481 q 143 626 74 553 q 285 758 213 700 q 372 815 357 815 q 376 807 376 815 q 351 766 376 794 q 299 699 325 738 q 272 626 272 661 q 317 559 272 581 q 414 538 363 538 l 949 538 q 1013 519 1013 538 z "},"Y":{"ha":1397,"x_min":92,"x_max":1182,"o":"m 1182 504 q 1028 109 1182 265 q 636 -47 874 -47 q 241 110 390 -47 q 92 515 92 268 q 257 888 92 732 q 642 1044 422 1044 q 1022 885 863 1044 q 1182 504 1182 725 m 946 760 q 890 834 946 794 q 797 874 835 874 q 762 863 772 874 q 751 825 751 851 q 784 738 751 774 q 868 703 817 703 q 946 760 946 703 m 1054 439 q 1040 483 1054 465 q 999 501 1025 501 q 924 461 957 501 q 892 378 892 421 q 912 307 892 344 q 963 269 932 269 q 1026 333 999 269 q 1054 439 1054 396 m 521 819 q 476 874 521 874 q 380 833 436 874 q 324 753 324 792 q 404 703 324 703 q 486 738 451 703 q 521 819 521 774 m 783 544 q 719 605 783 560 q 636 650 654 650 q 551 606 615 650 q 486 542 486 561 q 543 378 486 524 q 624 368 557 368 q 725 383 707 368 q 758 460 733 389 q 783 544 783 531 m 753 129 q 712 194 753 165 q 633 224 671 224 q 556 197 596 224 q 515 135 515 171 q 639 72 515 72 q 753 129 753 72 m 353 319 q 362 337 353 319 q 371 392 371 354 q 338 465 371 429 q 267 501 304 501 q 221 439 221 501 q 243 340 221 396 q 301 285 265 285 q 353 319 335 285 z "},"Z":{"ha":1283,"x_min":33,"x_max":1133,"o":"m 1133 514 q 1071 421 1133 433 q 998 419 1064 414 q 922 425 932 425 l 585 425 q 490 349 490 425 q 523 285 490 319 q 556 207 556 251 q 517 133 556 167 q 439 100 479 100 q 317 186 417 100 q 126 374 218 272 q 33 511 33 476 q 130 660 33 556 q 326 849 226 765 q 439 932 425 932 q 521 893 482 932 q 560 811 560 854 q 524 747 560 786 q 489 672 489 707 q 589 604 489 604 l 940 604 q 992 608 958 604 q 1043 611 1025 611 q 1133 514 1133 611 m 1017 517 q 919 568 1017 568 l 575 568 q 492 556 547 568 q 410 543 438 543 q 348 566 374 543 q 322 624 322 589 q 341 672 322 650 q 382 708 360 694 q 423 738 404 721 q 442 769 442 754 q 408 814 442 814 q 245 689 374 814 q 117 518 117 564 q 243 340 117 463 q 414 218 369 218 q 439 249 439 218 q 420 290 439 271 q 380 324 401 310 q 340 361 358 338 q 321 414 321 385 q 350 467 321 446 q 413 488 379 488 q 492 474 439 488 q 571 460 544 460 l 925 460 q 988 474 958 460 q 1017 517 1017 488 z "},"[":{"ha":1342,"x_min":81,"x_max":1140,"o":"m 1140 497 q 1033 306 1140 435 q 797 72 926 176 q 607 -32 667 -32 q 436 69 564 -32 q 194 300 308 169 q 81 497 81 431 q 188 694 81 565 q 422 925 294 824 q 607 1026 550 1026 q 797 924 668 1026 q 1033 693 926 822 q 1140 497 1140 564 z "},"\\":{"ha":1113,"x_min":54,"x_max":958,"o":"m 958 831 q 926 728 958 778 q 857 645 894 678 q 788 572 819 613 q 756 494 756 531 q 783 397 756 447 q 839 285 811 346 q 867 156 867 225 q 817 56 867 99 q 710 14 768 14 q 633 50 672 14 q 561 122 593 86 q 508 158 529 158 q 465 129 488 158 q 418 58 442 100 q 367 -25 394 17 q 297 -96 339 -67 q 207 -125 256 -125 q 99 -78 143 -125 q 54 32 54 -31 q 92 187 54 111 q 174 310 129 263 q 256 408 218 357 q 293 494 293 460 q 234 674 293 569 q 175 846 175 778 q 201 956 175 919 q 299 992 228 992 q 398 963 354 992 q 463 898 442 933 q 507 833 485 863 q 547 804 529 804 q 602 830 574 804 q 654 886 631 856 q 719 942 678 917 q 811 968 761 968 q 920 933 882 968 q 958 831 958 897 z "},"]":{"ha":1392,"x_min":111,"x_max":1132,"o":"m 1132 172 q 1088 46 1132 92 q 965 0 1044 0 l 288 0 q 111 221 111 0 l 111 835 q 162 967 111 924 q 303 1011 213 1011 l 950 1011 q 1086 958 1040 1011 q 1132 814 1132 906 l 1132 172 z "},"^":{"ha":1388,"x_min":110,"x_max":1151,"o":"m 1151 156 q 1106 31 1151 79 q 986 -17 1061 -17 l 288 -17 q 110 204 110 -17 l 110 846 q 161 978 110 933 q 301 1022 213 1022 l 969 1022 q 1103 967 1056 1022 q 1151 825 1151 913 l 1151 156 m 1022 421 q 962 577 1022 463 q 824 792 901 692 q 710 892 747 892 q 442 765 644 892 q 240 583 240 638 q 301 430 240 544 q 439 214 363 315 q 551 113 515 113 q 705 174 590 113 q 921 310 819 235 q 1022 421 1022 386 m 867 551 q 790 392 867 514 q 682 269 714 269 q 519 343 642 269 q 397 451 397 417 q 473 614 397 493 q 583 735 549 735 q 745 660 624 735 q 867 551 867 586 z "},"_":{"ha":761,"x_min":-50,"x_max":744,"o":"m 714 -79 l -21 -79 q -42 -69 -33 -79 q -50 -44 -50 -58 q -42 -17 -50 -29 q -21 -4 -35 -4 l 714 -4 q 736 -18 728 -4 q 744 -46 744 -32 q 735 -68 744 -57 q 714 -79 725 -79 m 714 -232 l -21 -232 q -42 -219 -33 -232 q -50 -193 -50 -207 q -42 -166 -50 -179 q -21 -153 -33 -153 l 714 -153 q 734 -167 725 -153 q 743 -193 743 -181 q 735 -219 743 -206 q 714 -232 726 -232 m 714 -383 l -21 -383 q -42 -372 -33 -383 q -50 -346 -50 -360 q -42 -322 -50 -333 q -21 -310 -33 -310 l 714 -310 q 735 -322 726 -310 q 743 -346 743 -333 q 735 -372 743 -360 q 714 -383 726 -383 z "},"`":{"ha":765,"x_min":118,"x_max":500,"o":"m 500 333 q 394 296 500 296 q 289 319 313 296 q 226 372 271 338 q 149 435 181 407 q 118 474 118 463 q 143 508 118 494 q 201 521 168 521 q 269 518 218 521 q 333 515 319 515 q 410 476 378 515 q 465 401 429 454 q 500 333 500 347 z "},"a":{"ha":1336,"x_min":88,"x_max":1129,"o":"m 1129 499 q 981 122 1129 275 q 608 -32 832 -32 q 244 124 400 -32 q 88 489 88 281 q 228 871 88 711 q 588 1031 368 1031 q 973 879 817 1031 q 1129 499 1129 728 m 1082 496 q 942 842 1082 699 q 599 986 801 986 q 268 844 406 986 q 131 510 131 703 q 270 159 131 301 q 617 17 410 17 q 951 154 821 17 q 1082 496 1082 292 m 888 668 q 859 599 888 628 q 792 571 831 571 q 721 600 747 571 q 694 674 694 629 q 722 740 694 713 q 788 768 749 768 q 860 740 833 768 q 888 668 888 713 m 521 674 q 492 606 521 635 q 424 576 463 576 q 355 606 381 576 q 329 681 329 636 q 356 747 329 719 q 421 774 382 774 q 493 747 465 774 q 521 674 521 719 m 997 400 q 926 266 997 335 q 765 156 856 197 q 613 115 675 115 q 458 153 546 115 q 303 257 371 190 q 235 393 235 324 q 268 452 235 421 q 329 483 301 483 q 353 462 339 483 q 386 409 367 440 q 433 347 406 378 q 505 294 460 315 q 606 272 550 272 q 733 305 676 272 q 816 376 789 338 q 867 448 843 415 q 906 481 892 481 q 967 456 936 481 q 997 400 997 431 m 836 669 q 824 704 836 690 q 790 718 811 718 q 760 704 771 718 q 749 671 749 690 q 760 636 749 651 q 792 621 772 621 q 824 635 811 621 q 836 669 836 650 m 469 675 q 457 710 469 696 q 424 724 444 724 q 393 710 404 724 q 382 676 382 696 q 394 642 382 657 q 425 628 406 628 q 457 642 444 628 q 469 675 469 656 m 921 368 q 906 392 921 392 q 877 365 901 392 q 820 308 853 339 q 729 250 788 276 q 606 224 671 224 q 486 249 540 224 q 404 307 432 275 q 353 365 376 339 q 321 390 331 390 q 301 374 301 390 q 360 271 301 321 q 492 193 419 221 q 615 165 564 165 q 729 196 657 165 q 861 276 801 226 q 921 368 921 325 z "},"b":{"ha":1400,"x_min":94,"x_max":1181,"o":"m 94 521 q 137 416 94 444 q 261 388 179 388 l 663 388 q 706 369 706 388 q 691 343 706 360 q 662 298 676 326 q 647 232 647 269 q 681 139 647 172 q 774 106 714 106 q 842 127 806 106 q 901 169 879 149 q 962 232 924 190 q 1008 282 1000 274 q 1060 331 1019 293 q 1121 389 1101 368 q 1160 446 1140 410 q 1181 515 1181 482 q 1168 574 1181 546 q 1142 617 1156 601 q 1100 661 1128 633 l 931 829 q 910 849 926 833 q 889 870 894 865 q 869 887 883 875 q 847 903 856 899 q 824 915 838 908 q 795 924 810 922 q 765 926 781 926 q 679 894 711 926 q 647 807 647 861 q 663 735 647 764 q 692 691 678 706 q 707 668 707 676 q 703 655 707 660 q 693 648 700 650 q 682 645 686 646 q 667 645 678 644 q 656 646 657 646 l 261 646 q 140 619 185 646 q 94 521 94 593 z "},"c":{"ha":1353,"x_min":74,"x_max":1158,"o":"m 74 517 q 169 454 74 454 l 715 454 q 842 379 842 454 q 782 286 842 351 q 722 186 722 221 q 788 132 722 132 q 819 145 799 132 q 863 182 839 158 q 908 226 888 206 q 952 270 929 246 q 979 299 975 294 q 1024 341 986 306 q 1087 401 1063 376 q 1135 458 1111 425 q 1158 514 1158 492 q 1147 553 1158 532 q 1115 599 1136 575 q 1076 640 1093 624 q 1034 681 1060 657 q 1001 711 1008 706 q 960 753 996 717 q 894 819 924 790 q 833 874 865 849 q 788 900 800 900 q 742 885 760 900 q 725 842 725 869 q 782 747 725 806 q 839 646 839 688 q 703 576 839 576 l 165 576 q 74 517 74 576 z "},"d":{"ha":1258,"x_min":39,"x_max":1079,"o":"m 1079 946 l 1079 746 q 1071 703 1079 725 q 1044 682 1063 682 q 1018 704 1025 682 q 1012 753 1011 726 q 998 801 1013 779 q 950 824 983 824 q 826 726 919 824 q 733 596 733 628 q 741 551 733 574 q 762 499 749 528 q 781 457 775 471 q 804 314 804 392 q 699 43 804 146 q 425 -60 594 -60 q 142 38 246 -60 q 39 313 39 136 q 144 586 39 482 q 418 690 249 690 q 525 676 458 690 q 617 663 592 663 q 679 692 650 663 q 822 842 790 793 q 847 907 847 881 q 832 940 847 926 q 799 960 817 954 q 767 974 782 965 q 751 996 751 983 q 814 1032 751 1032 l 985 1032 q 1061 1016 1043 1032 q 1079 946 1079 1000 m 732 306 q 646 542 732 446 q 421 638 560 638 q 201 544 288 638 q 114 317 114 451 q 195 81 114 171 q 421 -8 276 -8 q 645 80 558 -8 q 732 306 732 168 z "},"e":{"ha":1018,"x_min":67,"x_max":860,"o":"m 860 672 q 831 615 860 640 q 771 590 803 590 q 676 658 676 590 q 705 728 676 697 q 772 760 733 760 q 835 735 810 760 q 860 672 860 710 m 544 850 q 517 792 544 821 q 463 763 490 763 q 403 790 429 763 q 378 851 378 818 q 399 917 378 889 q 457 946 421 946 q 544 850 544 946 m 856 321 q 833 263 856 289 q 779 236 811 236 q 706 263 736 236 q 676 333 676 290 q 699 387 676 368 q 757 406 721 406 q 826 383 797 406 q 856 321 856 360 m 510 496 q 497 463 510 475 q 463 450 483 450 q 427 463 442 450 q 413 497 413 476 q 426 531 413 517 q 460 544 440 544 q 496 531 482 544 q 510 496 510 518 m 247 658 q 222 607 247 626 q 164 588 196 588 q 96 612 125 588 q 67 675 67 636 q 90 735 67 710 q 149 760 114 760 q 215 726 182 760 q 247 658 247 692 m 546 136 q 520 78 546 104 q 464 51 494 51 q 401 75 425 51 q 378 139 378 99 q 401 203 378 174 q 458 233 424 233 q 519 203 493 233 q 546 136 546 172 m 246 338 q 216 269 246 301 q 151 238 186 238 q 89 260 111 238 q 67 322 67 283 q 97 384 67 361 q 165 407 126 407 q 222 388 199 407 q 246 338 246 369 z "},"f":{"ha":1036,"x_min":100,"x_max":843,"o":"m 843 643 q 825 501 843 561 q 778 406 807 440 q 714 345 749 371 q 644 301 679 319 q 581 264 610 283 q 533 214 551 244 q 515 140 515 183 q 544 -3 515 25 q 588 -25 560 -18 q 638 -33 615 -32 q 678 -42 661 -35 q 696 -68 696 -50 q 678 -99 696 -89 q 638 -112 661 -110 q 589 -121 615 -114 q 549 -140 563 -128 q 530 -178 538 -153 q 519 -224 522 -203 q 505 -261 515 -244 q 478 -278 494 -278 q 449 -262 458 -278 q 437 -226 439 -247 q 426 -180 435 -206 q 401 -139 418 -154 q 363 -122 389 -128 q 315 -113 338 -115 q 274 -100 292 -111 q 257 -67 257 -89 q 283 -39 257 -47 q 347 -24 310 -31 q 397 -3 383 -17 q 429 131 429 28 q 405 215 429 179 q 344 272 381 251 q 265 320 307 292 q 185 381 222 349 q 124 475 149 413 q 100 622 100 538 q 203 892 100 789 q 474 994 307 994 q 736 896 629 994 q 843 643 843 797 m 774 629 q 688 853 774 763 q 471 943 603 943 q 258 849 343 943 q 172 628 172 756 q 256 404 172 494 q 471 314 339 314 q 690 403 606 314 q 774 629 774 493 z "},"g":{"ha":1296,"x_min":94,"x_max":1085,"o":"m 1085 733 q 903 322 1085 517 q 715 104 792 206 q 696 78 714 103 q 667 40 678 53 q 639 7 657 26 q 606 -22 621 -12 q 578 -32 590 -32 q 516 8 551 -32 q 438 117 481 49 q 392 189 394 186 q 296 300 363 228 q 151 513 208 394 q 94 746 94 631 q 156 929 94 851 q 322 1007 218 1007 q 441 984 382 1007 q 539 938 500 961 q 588 915 578 915 q 636 938 600 915 q 727 984 672 961 q 840 1007 782 1007 q 1024 933 964 1007 q 1085 733 1085 860 m 974 743 q 938 856 974 821 q 824 892 901 892 q 721 863 763 892 q 663 801 679 835 q 627 740 647 768 q 585 711 607 711 q 545 731 561 711 q 517 777 529 750 q 487 831 504 804 q 433 878 469 858 q 342 897 396 897 q 241 853 275 897 q 207 740 207 810 q 399 356 207 567 q 449 290 406 347 q 532 189 493 233 q 582 144 571 144 q 640 193 593 144 q 742 306 686 242 q 804 378 797 371 q 974 743 974 563 z "},"h":{"ha":1415,"x_min":42,"x_max":1244,"o":"m 1222 511 q 1233 504 1222 511 q 1244 486 1244 497 q 1222 463 1244 475 q 1172 440 1200 451 q 1136 422 1144 429 q 1088 322 1125 413 q 1039 211 1051 231 q 1023 187 1035 204 q 1006 162 1011 169 q 994 140 1001 154 q 985 111 988 125 q 982 82 982 97 q 995 24 982 61 q 1008 -35 1008 -14 q 993 -49 1008 -49 q 970 -24 981 -49 q 937 25 960 0 q 869 50 914 50 q 760 29 832 50 q 650 8 688 8 q 528 28 608 8 q 408 49 449 49 q 347 24 369 49 q 313 -24 324 0 q 292 -49 301 -49 q 278 -31 278 -49 q 288 24 278 -12 q 299 81 299 61 q 289 134 299 111 q 255 189 279 157 q 224 233 231 221 q 194 316 211 257 q 157 401 176 375 q 118 436 139 425 q 90 448 111 440 q 55 465 68 456 q 42 489 42 475 q 55 510 42 504 q 86 519 68 517 q 127 539 104 522 q 167 586 150 556 q 183 631 175 600 q 193 669 190 663 q 299 824 224 756 q 465 925 375 893 q 500 935 468 926 q 547 954 532 944 q 583 992 556 960 q 638 1025 611 1025 q 700 991 665 1025 q 751 950 735 957 q 813 924 765 944 q 872 899 860 904 q 918 875 883 893 q 966 844 953 857 q 1003 808 979 831 q 1044 758 1028 785 q 1076 696 1060 731 q 1092 653 1081 686 q 1115 594 1104 621 q 1132 560 1125 567 q 1169 538 1140 551 q 1222 511 1199 525 m 1036 604 q 953 784 1036 690 q 786 878 871 878 q 726 811 726 878 q 781 617 726 722 q 917 513 836 513 q 1036 604 1036 513 m 1017 291 q 1029 307 1017 291 q 1040 363 1040 322 q 1018 428 1040 403 q 957 453 996 453 q 899 431 922 453 q 876 375 876 410 q 898 298 876 336 q 956 260 919 260 q 1017 291 994 260 m 716 541 q 730 552 716 541 q 743 610 743 564 q 713 710 743 656 q 640 764 682 764 q 571 708 600 764 q 542 610 542 653 q 642 518 542 518 q 716 541 689 518 m 556 811 q 492 878 556 878 q 326 781 411 878 q 242 604 242 685 q 274 539 242 563 q 349 515 306 515 q 454 548 422 515 q 515 657 486 581 q 556 811 556 758 m 885 176 q 858 296 885 214 q 810 408 832 378 q 758 446 792 433 q 701 460 724 458 q 635 461 679 461 q 513 442 550 461 q 444 349 476 422 q 399 175 399 239 q 640 50 399 50 q 885 176 885 50 m 406 368 q 383 430 406 407 q 322 453 361 453 q 265 430 288 453 q 242 372 242 407 q 264 296 242 335 q 321 257 286 257 q 382 292 358 257 q 406 368 406 328 z "},"i":{"ha":994,"x_min":53,"x_max":851,"o":"m 851 703 q 843 694 851 699 q 831 689 835 689 q 806 694 821 689 q 774 707 792 700 q 749 717 756 714 q 610 735 690 735 q 492 701 557 735 q 426 619 426 668 q 453 582 426 582 q 498 587 468 582 q 543 592 528 592 q 703 512 643 592 q 764 329 764 432 q 742 190 764 250 q 695 107 719 131 q 654 83 671 83 q 649 85 650 83 q 671 128 649 93 q 715 215 693 163 q 738 319 738 268 q 700 448 738 381 q 606 515 663 515 q 571 485 571 515 q 577 444 571 471 q 583 403 583 417 q 495 261 583 313 q 310 210 407 210 q 154 235 256 210 q 53 292 53 260 q 71 304 53 304 q 156 274 74 304 q 300 244 238 244 q 399 268 340 244 q 458 326 458 292 q 444 356 458 347 q 392 364 429 364 q 227 453 299 364 q 156 638 156 542 q 201 810 156 693 q 292 928 247 928 q 311 919 300 928 q 282 868 311 910 q 223 765 253 826 q 193 650 193 704 q 202 574 193 615 q 235 497 211 533 q 294 461 260 461 q 331 493 331 461 q 328 519 331 503 q 325 544 325 536 q 410 701 325 642 q 596 760 494 760 q 751 744 651 760 q 851 703 851 729 z "},"j":{"ha":1158,"x_min":36,"x_max":1017,"o":"m 1017 492 q 963 435 1017 463 q 831 374 908 408 q 718 303 754 339 q 600 111 633 222 q 593 83 597 103 q 585 54 589 64 q 574 32 581 44 q 554 14 567 19 q 524 8 542 8 q 472 41 496 8 q 433 117 449 74 q 390 217 418 161 q 328 306 361 272 q 247 361 300 333 q 149 406 193 389 q 70 449 104 424 q 36 499 36 474 q 90 560 36 531 q 217 622 143 589 q 324 688 292 656 q 377 765 349 713 q 426 862 406 817 q 473 942 446 907 q 525 976 500 976 q 574 944 550 976 q 614 868 597 911 q 658 773 631 825 q 714 692 685 721 q 801 631 746 660 q 902 586 857 603 q 982 544 947 569 q 1017 492 1017 519 m 833 493 q 823 546 833 524 q 805 576 813 568 q 765 613 797 583 q 698 681 754 622 q 598 772 642 740 q 517 804 554 804 q 456 780 493 804 q 393 730 419 756 q 328 663 367 704 q 281 614 289 622 q 243 578 254 589 q 219 543 232 567 q 207 493 207 519 q 241 422 207 464 q 335 324 275 379 q 403 261 396 269 q 438 224 428 233 q 471 202 447 215 q 519 189 494 189 q 576 199 560 189 q 625 240 593 208 q 698 308 632 247 q 799 413 764 368 q 833 493 833 457 z "},"k":{"ha":1039,"x_min":65,"x_max":879,"o":"m 879 703 q 844 632 879 658 q 765 597 808 606 q 687 565 722 588 q 651 508 651 543 q 675 463 651 481 q 732 434 699 444 q 799 412 765 424 q 856 374 832 400 q 879 308 879 349 q 799 247 879 247 q 733 265 764 247 q 683 305 701 283 q 638 344 664 326 q 582 363 611 363 q 535 299 535 363 q 542 227 535 274 q 550 157 550 181 q 533 93 550 114 q 469 72 515 72 q 413 96 432 72 q 393 156 393 119 q 404 230 393 181 q 415 304 415 279 q 368 367 415 367 q 309 348 338 367 q 261 306 281 329 q 212 265 242 283 q 149 246 182 246 q 67 318 67 246 q 102 387 67 360 q 181 424 138 414 q 259 453 224 433 q 294 503 294 474 q 258 564 294 542 q 180 594 222 586 q 101 629 138 603 q 65 703 65 656 q 89 755 65 736 q 146 774 113 774 q 207 755 178 774 q 254 715 236 736 q 300 674 272 693 q 357 656 328 656 q 413 719 413 656 q 402 790 413 743 q 392 861 392 836 q 410 934 392 904 q 469 964 429 964 q 554 860 554 964 q 545 790 554 836 q 536 722 536 744 q 592 653 536 653 q 640 672 614 653 q 685 713 665 690 q 737 755 706 736 q 801 774 768 774 q 856 754 833 774 q 879 703 879 735 m 560 503 q 539 567 560 543 q 479 590 518 590 q 413 568 440 590 q 386 508 386 546 q 410 444 386 468 q 474 419 433 419 q 560 503 560 419 z "},"l":{"ha":964,"x_min":31,"x_max":849,"o":"m 849 499 q 739 453 849 450 l 693 453 q 646 441 660 454 q 632 393 632 428 q 649 347 632 367 q 688 317 667 328 q 727 285 710 307 q 744 232 744 263 q 733 208 744 217 q 708 200 722 200 q 660 217 682 200 q 624 253 638 233 q 589 290 611 274 q 540 307 567 307 q 485 218 482 307 l 488 153 q 446 86 490 86 q 397 164 394 86 l 399 218 q 349 307 401 307 q 299 289 322 307 q 261 249 275 271 q 226 208 247 226 q 179 190 204 190 q 151 205 164 190 q 139 235 139 219 q 194 312 139 264 q 249 386 249 360 q 193 447 249 450 l 131 443 q 90 444 111 442 q 50 458 69 447 q 31 489 31 469 q 104 540 31 546 l 179 536 q 246 583 246 533 q 228 636 246 613 q 191 674 211 660 q 153 710 171 688 q 136 760 136 732 q 145 788 136 781 q 176 794 154 794 q 232 768 207 794 q 282 715 257 742 q 339 688 307 688 q 392 744 397 688 l 389 808 q 438 906 385 906 q 485 818 488 906 l 482 756 q 519 688 482 688 q 581 705 556 688 q 619 744 607 722 q 653 783 631 765 q 704 800 675 800 q 731 788 719 800 q 742 758 742 775 q 685 679 742 736 q 628 603 628 622 q 693 543 628 540 l 753 546 q 849 499 849 550 z "},"m":{"ha":1613,"x_min":93,"x_max":1374,"o":"m 93 519 q 145 442 93 465 q 260 418 197 418 l 729 418 q 799 401 776 418 q 824 361 821 385 q 828 314 826 338 q 843 274 829 290 q 892 257 857 257 q 1001 298 935 257 q 1082 344 1068 339 q 1158 367 1100 351 q 1258 397 1217 383 q 1337 440 1300 410 q 1374 508 1374 469 q 1357 581 1374 551 q 1308 628 1340 611 q 1245 653 1276 644 q 1171 672 1214 663 q 1104 692 1128 682 q 1042 722 1089 697 q 953 767 994 747 q 899 788 913 788 q 837 762 853 788 q 823 706 821 736 q 806 651 825 676 q 735 625 786 625 l 265 625 q 93 519 93 625 z "},"n":{"ha":1474,"x_min":114,"x_max":1228,"o":"m 124 544 q 119 540 124 544 q 114 521 114 536 q 125 496 114 506 q 151 486 136 486 q 176 494 165 486 q 188 517 188 503 q 176 542 188 532 q 149 553 164 553 q 124 544 135 553 m 276 521 q 288 492 276 504 q 315 479 299 479 q 346 492 333 479 q 358 522 358 504 q 347 550 358 539 q 319 561 336 561 q 289 550 301 561 q 276 521 276 539 m 454 517 q 501 471 454 471 q 549 518 549 471 q 499 567 549 567 q 463 555 472 567 q 454 517 454 543 m 636 521 q 647 480 636 492 q 685 468 657 468 q 728 478 717 468 q 740 521 740 489 q 727 562 740 551 q 681 572 714 572 q 644 560 653 572 q 636 521 636 549 m 813 817 q 866 725 813 778 q 919 631 919 672 q 903 607 919 615 q 867 595 888 599 q 831 574 847 592 q 815 524 815 556 q 831 472 815 490 q 867 451 847 454 q 903 435 888 447 q 919 397 919 422 q 893 351 919 378 q 840 292 867 324 q 814 233 814 261 q 828 184 814 203 q 872 165 843 165 q 1070 323 913 165 q 1228 521 1228 481 q 1072 721 1228 563 q 874 879 915 879 q 826 865 839 879 q 813 817 813 851 z "},"o":{"ha":1201,"x_min":110,"x_max":983,"o":"m 983 408 q 956 250 983 344 q 885 156 928 156 l 868 174 q 901 269 869 193 q 933 407 933 344 q 870 595 933 497 q 725 693 807 693 q 744 663 725 686 q 786 613 764 640 q 828 538 808 586 q 847 436 847 489 q 722 201 847 293 q 449 110 596 110 q 260 163 260 110 q 275 182 260 182 q 363 172 304 182 q 451 163 421 163 q 615 204 518 163 q 713 300 713 246 q 679 286 706 297 q 638 269 653 275 q 595 256 624 264 q 535 245 567 249 q 467 242 504 242 q 213 352 315 242 q 110 617 110 463 q 160 811 110 693 q 272 929 210 929 q 293 918 293 929 q 259 859 293 907 q 190 742 225 811 q 156 613 156 674 q 203 444 156 543 q 313 344 251 344 q 303 382 319 353 q 263 461 286 411 q 240 557 240 511 q 363 807 240 713 q 644 903 485 901 q 822 854 822 903 q 801 842 822 842 q 725 849 775 842 q 649 857 675 857 q 441 786 550 857 q 332 621 332 715 q 358 638 343 621 q 389 676 372 654 q 414 704 406 697 q 624 767 493 767 q 875 659 767 767 q 983 408 983 551 z "},"p":{"ha":1178,"x_min":86,"x_max":986,"o":"m 986 301 q 947 229 986 263 q 869 196 908 196 q 753 176 800 196 q 685 126 707 156 q 647 69 664 97 q 603 20 629 40 q 539 0 578 0 q 465 24 496 0 q 406 93 435 49 q 360 153 376 138 q 312 183 336 175 q 249 192 288 190 q 194 197 211 194 q 116 234 146 206 q 86 310 86 263 q 112 404 86 344 q 138 499 138 464 q 112 601 138 553 q 86 690 86 650 q 133 787 86 757 q 250 817 179 817 q 348 846 308 817 q 406 910 388 875 q 459 974 425 944 q 539 1003 493 1003 q 602 983 575 1003 q 648 936 629 964 q 688 881 667 908 q 742 833 708 853 q 822 814 776 814 q 940 785 893 814 q 986 690 986 756 q 959 595 986 651 q 932 513 932 539 q 959 406 932 474 q 986 301 986 339 m 644 503 q 613 583 644 550 q 533 615 581 615 q 456 582 488 615 q 425 503 425 549 q 458 427 425 458 q 535 396 490 396 q 612 427 579 396 q 644 503 644 458 z "},"q":{"ha":1239,"x_min":63,"x_max":1064,"o":"m 639 471 q 611 531 639 508 q 544 554 583 554 q 488 528 513 554 q 463 471 463 503 q 488 406 463 429 q 554 382 513 382 q 614 408 589 382 q 639 471 639 435 m 1064 610 q 1036 551 1064 574 q 969 514 1008 528 q 891 481 931 500 q 824 423 851 463 q 796 324 796 383 q 843 208 796 279 q 890 92 890 136 q 875 53 890 69 q 838 38 860 38 q 777 56 804 38 q 729 99 750 74 q 686 150 708 125 q 628 193 664 175 q 547 211 593 211 q 461 183 501 211 q 397 123 421 156 q 342 63 374 90 q 278 35 310 35 q 226 100 226 35 q 267 204 226 140 q 308 318 308 268 q 283 424 308 383 q 222 483 258 465 q 149 513 186 500 q 88 547 113 525 q 63 604 63 568 q 142 656 63 656 q 223 640 171 656 q 303 624 275 624 q 410 687 347 624 q 472 793 472 750 q 554 982 472 982 q 632 793 632 982 q 692 677 632 735 q 810 619 751 619 q 894 638 839 619 q 978 657 949 657 q 1064 610 1064 657 z "},"r":{"ha":1256,"x_min":143,"x_max":1022,"o":"m 1022 601 q 1004 578 1022 588 q 971 568 986 568 q 958 573 965 568 q 951 583 951 578 q 969 608 951 597 q 1001 619 988 619 q 1022 601 1022 619 m 593 900 q 569 856 593 856 q 547 893 547 856 q 569 936 547 936 q 593 900 593 936 m 724 607 q 686 567 724 567 q 648 584 669 567 q 626 617 626 601 q 667 660 626 660 q 704 642 685 660 q 724 607 724 625 m 776 422 q 763 390 776 403 q 732 376 750 376 q 708 393 717 376 q 700 426 700 410 q 710 458 700 443 q 738 474 721 474 q 765 457 754 474 q 776 422 776 440 m 515 621 q 495 583 515 601 q 456 565 475 565 q 432 578 440 565 q 424 606 424 590 q 441 641 424 626 q 479 656 458 656 q 515 621 515 656 m 858 114 l 842 99 q 810 118 825 99 q 794 154 796 138 l 810 169 q 842 151 826 169 q 858 114 858 132 m 621 303 q 607 273 621 283 q 574 263 593 263 q 540 275 556 263 q 524 304 524 288 q 575 340 524 340 q 607 330 593 340 q 621 303 621 319 m 446 419 q 410 379 446 379 q 378 394 392 379 q 364 426 364 410 q 378 460 364 446 q 411 474 392 474 q 437 456 428 474 q 446 419 446 438 m 213 582 l 192 568 q 160 578 178 568 q 143 601 143 589 q 153 612 143 607 q 169 617 163 617 q 198 606 183 617 q 213 582 213 596 m 358 153 q 344 119 358 138 q 314 100 329 100 l 300 115 q 313 150 300 131 q 340 169 325 169 q 358 153 358 169 z "},"s":{"ha":1299,"x_min":86,"x_max":1094,"o":"m 1094 492 q 946 139 1094 283 q 589 -6 797 -6 q 235 140 383 -6 q 86 492 86 286 q 226 860 86 719 q 594 1000 365 1000 q 955 856 815 1000 q 1094 492 1094 713 m 1011 506 q 961 725 1011 622 q 818 889 911 828 q 706 928 758 928 q 641 896 657 928 q 625 810 625 864 q 639 582 625 603 q 779 455 656 556 q 922 354 903 354 q 965 365 947 354 q 992 388 983 375 q 1006 424 1001 400 q 1010 463 1010 449 q 1011 506 1011 478 m 922 224 q 834 349 922 271 q 697 426 746 426 q 655 411 671 426 q 633 366 639 396 q 626 317 628 336 q 625 267 625 299 q 625 254 625 258 q 697 65 625 65 q 838 119 753 65 q 922 224 922 172 m 558 729 q 558 739 558 732 q 479 928 560 928 q 363 889 424 928 q 220 724 269 829 q 171 501 171 618 q 172 464 171 478 q 176 426 172 450 q 188 390 181 403 q 210 366 194 376 q 249 356 226 356 q 385 438 282 356 q 521 561 488 521 q 548 616 539 582 q 558 667 557 650 q 558 729 558 685 m 490 428 q 353 350 447 428 q 258 231 258 272 q 344 123 258 182 q 481 64 429 64 q 524 76 507 64 q 549 110 542 88 q 558 152 556 133 q 560 199 560 171 l 560 244 q 535 404 560 367 q 490 428 518 428 z "},"t":{"ha":1001,"x_min":63,"x_max":849,"o":"m 849 504 q 828 477 849 489 q 781 458 807 465 q 735 428 756 450 q 714 374 714 407 q 728 312 714 351 q 743 251 743 272 q 718 222 743 222 q 662 240 704 222 q 594 258 619 258 q 549 235 568 258 q 519 183 529 211 q 493 132 510 156 q 456 108 476 108 q 433 129 443 108 q 414 174 422 150 q 384 219 406 199 q 331 240 363 240 q 265 224 308 240 q 200 207 222 207 q 171 229 171 207 q 192 284 171 243 q 214 351 214 325 q 176 410 214 385 q 101 453 139 435 q 63 488 63 471 q 85 516 63 503 q 135 538 108 529 q 185 565 163 546 q 208 613 208 585 q 189 686 208 639 q 169 757 169 733 q 192 781 169 781 q 249 762 201 781 q 331 743 297 743 q 369 766 351 743 q 397 816 386 789 q 423 866 407 843 q 457 889 439 889 q 485 867 472 889 q 508 821 499 846 q 537 774 518 796 q 582 753 556 753 q 658 772 611 753 q 721 790 706 790 q 743 765 743 790 q 722 710 743 750 q 701 646 701 671 q 724 592 701 614 q 775 561 747 571 q 826 537 803 551 q 849 504 849 522 z "},"u":{"ha":1140,"x_min":72,"x_max":967,"o":"m 967 706 q 928 610 967 646 q 845 563 890 574 q 762 538 800 553 q 724 500 724 522 q 749 470 724 482 q 809 448 774 458 q 879 423 844 438 q 939 378 914 408 q 964 306 964 349 q 933 226 964 257 q 856 196 903 196 q 779 217 815 196 q 723 262 743 238 q 678 307 703 286 q 631 328 653 328 q 604 303 604 328 q 620 220 604 275 q 636 136 636 165 q 606 44 636 85 q 526 3 576 3 q 437 42 471 3 q 403 136 403 81 q 419 222 403 167 q 435 304 435 278 q 407 328 435 328 q 367 308 390 328 q 322 264 344 288 q 263 220 300 240 q 182 200 225 200 q 106 226 139 200 q 72 293 72 251 q 111 389 72 351 q 196 439 150 426 q 281 465 242 451 q 319 493 319 478 q 294 529 319 515 q 232 553 268 543 q 160 579 196 564 q 98 628 124 594 q 72 711 72 661 q 107 782 72 760 q 192 804 142 804 q 276 772 233 804 q 351 707 318 739 q 406 675 385 675 q 436 699 436 675 q 421 777 436 724 q 406 858 406 831 q 521 1000 406 1000 q 606 960 578 1000 q 635 861 635 919 q 619 777 635 832 q 604 696 604 722 q 631 675 604 675 q 674 694 650 675 q 719 738 699 714 q 778 782 739 763 q 863 801 817 801 q 938 776 908 801 q 967 706 967 751 z "},"v":{"ha":1381,"x_min":82,"x_max":1174,"o":"m 82 514 q 101 459 82 481 q 155 428 119 438 q 224 415 190 418 q 304 411 257 411 l 718 411 q 794 386 794 411 q 743 301 794 356 q 692 201 692 246 q 715 138 692 161 q 778 115 739 115 q 913 198 815 115 q 1092 378 1010 281 q 1174 511 1174 475 q 1092 651 1174 553 q 912 830 1010 749 q 774 911 814 911 q 717 890 742 911 q 692 836 692 868 q 717 759 692 794 q 767 697 742 724 q 792 650 792 671 q 785 629 792 638 q 766 618 779 621 q 743 615 753 615 q 717 616 733 615 q 696 617 700 617 l 294 617 q 219 614 250 617 q 153 601 189 611 q 100 570 118 592 q 82 514 82 549 z "},"w":{"ha":1224,"x_min":57,"x_max":1056,"o":"m 1056 599 q 1018 535 1056 565 q 936 484 981 506 q 854 419 892 463 q 817 319 817 376 q 854 191 817 261 q 892 76 892 121 q 874 30 892 49 q 828 11 856 11 q 773 27 799 11 q 727 65 747 43 q 685 110 707 88 q 631 148 664 132 q 556 164 597 164 q 485 148 517 164 q 431 110 453 132 q 388 65 408 88 q 343 27 368 43 q 290 11 318 11 q 242 29 260 11 q 225 79 225 47 q 263 193 225 119 q 301 317 301 267 q 276 404 301 367 q 215 463 251 442 q 143 504 179 485 q 82 549 107 524 q 57 604 57 574 q 146 664 57 664 q 222 653 171 664 q 301 642 274 642 q 387 667 353 642 q 435 731 421 693 q 460 813 449 768 q 480 896 472 858 q 508 959 488 933 q 558 985 528 985 q 613 949 593 985 q 642 863 632 914 q 667 762 653 813 q 719 676 682 711 q 814 640 756 640 q 889 653 839 640 q 965 665 939 665 q 1056 599 1056 665 m 842 535 q 810 600 842 583 q 735 613 792 608 q 661 633 679 617 q 633 674 650 644 q 599 722 617 703 q 557 740 582 740 q 513 721 532 740 q 475 672 493 701 q 446 631 457 642 q 422 616 436 621 q 397 610 407 611 q 365 607 388 608 q 339 606 343 606 q 292 588 308 601 q 275 538 275 574 q 292 486 275 508 q 331 452 310 464 q 367 417 351 440 q 378 365 382 394 q 367 271 367 303 q 422 208 367 208 q 491 229 447 208 q 558 250 535 250 q 623 229 585 250 q 689 208 661 208 q 751 264 751 208 q 748 305 751 279 q 742 349 744 331 l 738 367 q 749 415 733 393 q 785 451 764 438 q 824 486 806 464 q 842 535 842 508 z "},"x":{"ha":1194,"x_min":74,"x_max":1013,"o":"m 74 519 q 138 499 74 499 l 689 499 q 776 469 738 499 q 814 393 814 439 q 760 303 814 365 q 707 226 707 242 q 710 221 708 221 q 796 277 722 221 q 941 407 869 333 q 1013 518 1013 481 q 943 626 1013 553 q 801 758 874 700 q 714 815 728 815 q 708 807 713 815 q 735 766 708 794 q 788 699 761 738 q 814 626 814 661 q 769 559 814 581 q 672 538 724 538 l 138 538 q 74 519 74 538 z "},"y":{"ha":1322,"x_min":93,"x_max":1108,"o":"m 1108 583 q 1065 308 1108 453 q 940 86 1021 163 q 604 -6 843 -6 q 261 72 349 -6 q 135 299 176 149 q 93 590 93 449 q 147 738 93 661 q 280 872 201 815 q 447 967 358 929 q 603 1004 535 1004 q 816 943 697 1004 q 1022 781 935 882 q 1108 583 1108 681 m 956 746 q 881 853 956 797 q 753 910 807 910 q 701 883 721 910 q 682 824 682 857 q 718 706 682 761 q 813 651 754 651 q 908 676 861 651 q 956 746 956 701 m 1065 438 q 976 522 1065 522 q 868 475 917 522 q 819 368 819 428 q 858 270 819 329 q 932 211 896 211 q 1024 295 983 211 q 1065 438 1065 379 m 515 808 q 497 878 515 847 q 442 908 478 908 q 316 853 389 908 q 243 746 243 797 q 288 676 243 701 q 382 651 333 651 q 478 699 442 651 q 515 808 515 747 m 796 553 q 597 683 626 683 q 400 550 400 576 q 474 332 468 336 q 528 317 489 317 q 722 336 701 315 q 753 442 742 413 q 775 487 754 446 q 796 553 796 528 m 750 101 q 701 201 750 156 q 599 247 653 247 q 494 205 546 247 q 443 111 443 163 q 496 41 443 64 q 604 18 549 18 q 702 38 654 18 q 750 101 750 58 m 371 371 q 324 477 371 432 q 214 522 276 522 q 156 499 179 522 q 133 440 133 476 q 174 308 133 390 q 258 225 215 225 q 335 277 299 225 q 371 371 371 329 z "},"z":{"ha":1283,"x_min":33,"x_max":1133,"o":"m 33 514 q 97 421 33 433 q 169 419 104 414 q 244 425 235 425 l 583 425 q 676 349 676 425 q 644 285 676 319 q 611 207 611 251 q 649 133 611 167 q 728 100 688 100 q 849 186 750 100 q 1041 374 949 272 q 1133 511 1133 476 q 1037 660 1133 556 q 841 849 940 765 q 728 932 742 932 q 646 893 685 932 q 607 811 607 854 q 642 747 607 786 q 678 672 678 707 q 578 604 678 604 l 226 604 q 175 608 208 604 q 124 611 142 611 q 33 514 33 611 m 150 517 q 247 568 150 568 l 592 568 q 675 556 621 568 q 757 543 729 543 q 819 566 793 543 q 844 624 844 589 q 826 672 844 650 q 785 708 807 694 q 744 738 763 721 q 725 769 725 754 q 758 814 725 814 q 922 689 793 814 q 1050 518 1050 564 q 924 340 1050 463 q 753 218 797 218 q 728 249 728 218 q 747 290 728 271 q 787 324 765 310 q 827 361 808 338 q 846 414 846 385 q 817 467 846 446 q 756 488 789 488 q 675 474 728 488 q 596 460 622 460 l 242 460 q 179 474 208 460 q 150 517 150 488 z "},"{":{"ha":1231,"x_min":54,"x_max":1065,"o":"m 1065 501 q 1047 449 1065 474 q 1011 411 1029 424 q 957 378 993 399 q 911 351 921 358 q 675 97 792 272 q 642 49 651 63 q 606 17 632 35 q 551 0 581 0 q 499 19 524 0 q 460 57 474 38 q 425 112 446 76 q 397 158 404 147 q 218 339 325 269 q 169 369 207 347 q 111 406 131 392 q 73 447 92 419 q 54 506 54 475 q 72 559 54 533 q 108 598 90 585 q 160 633 125 611 q 206 660 196 654 q 308 744 264 700 q 376 836 331 767 q 466 951 422 906 q 554 997 510 997 q 629 957 586 997 q 710 865 672 917 q 801 753 747 813 q 903 663 856 693 q 951 635 910 658 q 1009 599 992 611 q 1046 559 1026 586 q 1065 501 1065 532 m 642 506 q 613 565 642 540 q 547 589 583 589 q 488 562 513 589 q 463 500 463 535 q 488 438 463 467 q 547 410 514 410 q 613 440 583 410 q 642 506 642 469 z "},"|":{"ha":1154,"x_min":35,"x_max":1019,"o":"m 1019 789 q 988 690 1019 743 q 905 579 957 636 q 795 465 853 522 q 673 334 738 408 q 565 190 608 260 q 533 135 554 172 q 499 78 511 99 q 465 31 488 58 q 421 -10 442 4 q 369 -36 400 -25 q 300 -47 338 -47 q 188 10 240 -47 q 104 148 136 67 q 53 309 72 229 q 35 442 35 389 q 117 526 35 526 q 186 496 157 526 q 229 429 215 465 q 265 363 243 393 q 317 332 288 332 q 392 395 344 332 q 497 548 440 458 q 616 727 553 638 q 756 880 679 817 q 904 943 833 943 q 985 894 951 943 q 1019 789 1019 844 z "},"}":{"ha":1360,"x_min":117,"x_max":1119,"o":"m 1119 149 q 1097 39 1119 79 q 1011 -1 1075 -1 l 243 -1 q 151 33 186 -1 q 117 124 117 67 l 117 850 q 153 963 117 926 q 267 999 189 999 l 974 999 q 1083 956 1047 999 q 1119 839 1119 914 l 1119 149 m 928 276 l 928 710 q 905 783 928 760 q 832 807 882 807 l 411 807 q 328 787 353 807 q 303 710 303 767 l 303 281 q 326 214 303 232 q 400 196 350 196 l 825 196 q 903 212 878 196 q 928 276 928 228 z "},"~":{"ha":1365,"x_min":117,"x_max":1124,"o":"m 1124 163 q 1099 32 1124 67 q 997 -3 1075 -3 l 263 -3 q 148 26 179 -3 q 117 139 117 56 l 117 833 q 150 968 117 936 q 285 1000 183 1000 l 961 1000 q 1093 967 1063 1000 q 1124 824 1124 933 l 1124 163 m 1000 218 l 1000 767 q 976 847 1000 824 q 896 871 953 871 l 347 871 q 268 847 292 871 q 244 767 244 822 l 244 219 q 346 119 244 119 l 893 119 q 1000 218 1000 119 z "},"¡":{"ha":650,"x_min":0,"x_max":0,"o":""},"¢":{"ha":650,"x_min":0,"x_max":0,"o":""},"£":{"ha":1392,"x_min":94,"x_max":1172,"o":"m 1013 905 q 1092 827 1013 905 q 1172 522 1172 749 q 1013 140 1172 296 q 625 -17 853 -17 q 251 144 407 -17 q 94 522 94 304 q 251 901 94 740 q 625 1061 407 1061 q 1013 905 853 1061 m 856 519 q 761 725 856 640 q 543 810 667 810 q 352 738 435 810 q 269 558 269 665 q 361 348 269 439 q 572 257 453 257 q 773 330 690 257 q 856 519 856 403 z "},"¤":{"ha":650,"x_min":0,"x_max":0,"o":""},"¥":{"ha":1169,"x_min":132,"x_max":932,"o":"m 932 1022 q 893 934 932 986 q 808 836 854 882 q 722 735 761 790 q 683 639 683 679 q 703 603 683 618 q 743 589 722 589 q 794 600 761 589 q 846 611 828 611 q 889 588 874 611 q 904 538 904 565 q 890 476 904 506 q 846 447 875 447 q 772 469 819 447 q 697 490 724 490 q 641 456 663 490 q 619 383 619 421 q 630 338 619 358 q 664 318 640 318 q 753 345 696 318 q 843 372 810 372 q 885 345 871 372 q 900 286 900 318 q 886 225 900 253 q 842 197 872 197 q 757 221 811 197 q 674 244 703 244 q 625 224 646 244 q 604 175 604 203 q 628 89 604 144 q 653 3 653 33 q 614 -56 653 -35 q 535 -78 575 -78 q 453 -58 492 -78 q 415 3 415 -37 q 440 89 415 33 q 464 175 464 144 q 443 224 464 203 q 394 244 422 244 q 311 221 365 244 q 226 197 257 197 q 183 226 197 197 q 168 286 168 254 q 183 345 168 318 q 225 372 197 372 q 315 345 258 372 q 406 318 372 318 q 438 339 428 318 q 449 383 449 360 q 428 456 449 422 q 371 490 407 490 q 297 469 344 490 q 222 447 250 447 q 179 476 194 447 q 164 538 164 506 q 179 588 164 564 q 219 611 194 611 q 272 600 238 611 q 324 589 306 589 q 366 602 347 589 q 385 636 385 615 q 345 728 385 675 q 258 826 306 782 q 172 921 211 869 q 132 1008 132 972 q 164 1044 132 1033 q 229 1056 196 1056 q 383 978 340 1056 q 417 863 407 936 q 431 734 428 790 q 460 635 433 678 q 543 592 486 592 q 626 637 600 592 q 653 741 651 682 q 667 874 656 800 q 706 990 678 949 q 854 1060 750 1060 q 932 1022 932 1060 z "},"¦":{"ha":339,"x_min":49,"x_max":256,"o":"m 256 160 q 151 -57 256 -57 q 76 6 104 -57 q 49 160 49 69 q 151 378 49 378 q 256 160 256 378 m 256 783 q 151 567 256 567 q 76 631 104 567 q 49 783 49 694 q 151 1001 49 1001 q 256 783 256 1001 z "},"§":{"ha":1003,"x_min":97,"x_max":815,"o":"m 815 338 q 801 261 815 293 q 767 212 788 229 q 728 181 747 194 q 694 151 708 168 q 681 114 681 135 q 730 38 681 83 q 779 -44 779 -8 q 673 -257 779 -183 q 421 -331 567 -331 q 219 -273 340 -331 q 97 -146 97 -215 q 135 -69 97 -101 q 217 -37 172 -37 q 263 -50 244 -37 q 292 -81 281 -62 q 317 -117 303 -99 q 360 -147 331 -135 q 436 -160 390 -160 q 523 -131 485 -160 q 561 -54 561 -101 q 515 36 561 1 q 404 93 469 71 q 274 142 339 115 q 164 228 210 169 q 118 376 118 286 q 138 472 118 429 q 183 537 158 515 q 227 579 207 558 q 247 615 247 600 q 206 692 247 643 q 165 782 165 740 q 263 970 165 899 q 481 1042 360 1042 q 599 1019 529 1042 q 727 953 668 997 q 786 858 786 908 q 749 793 786 818 q 671 768 711 768 q 629 779 646 768 q 601 806 613 790 q 578 838 590 822 q 542 865 567 854 q 482 876 518 876 q 394 850 431 876 q 357 775 357 824 q 404 689 357 725 q 519 627 451 653 q 653 570 586 601 q 768 480 721 539 q 815 338 815 421 m 664 333 q 558 440 664 378 q 401 501 451 501 q 336 474 360 501 q 313 403 313 446 q 405 291 313 363 q 540 219 497 219 q 620 258 576 219 q 664 333 664 297 z "},"¨":{"ha":840,"x_min":139,"x_max":631,"o":"m 631 399 q 592 319 631 349 q 506 289 554 289 q 433 313 467 289 q 386 338 400 338 q 337 314 372 338 q 256 290 301 290 q 169 322 200 290 q 139 406 139 354 q 170 492 139 458 q 256 525 201 525 q 337 501 301 525 q 386 478 372 478 q 433 503 400 478 q 506 528 467 528 q 592 492 554 528 q 631 399 631 457 m 528 406 q 506 426 528 426 q 488 406 488 426 q 506 386 488 386 q 528 406 528 386 m 278 406 q 257 426 278 426 q 236 406 236 426 q 256 386 236 386 q 278 406 278 386 z "},"©":{"ha":1354,"x_min":82,"x_max":1114,"o":"m 1114 515 q 964 141 1114 301 q 601 -19 814 -19 q 233 140 383 -19 q 82 521 82 300 q 117 708 82 624 q 210 848 153 793 q 339 940 267 903 q 482 994 411 978 q 619 1011 553 1011 q 858 941 743 1011 q 1043 756 972 871 q 1114 515 1114 640 m 603 122 q 858 238 733 122 q 983 488 983 353 q 867 754 983 617 q 850 772 858 764 q 828 787 842 779 q 808 799 815 794 q 784 810 801 803 q 763 818 767 817 q 738 826 758 819 l 717 833 q 664 858 700 839 q 601 878 628 878 q 345 778 456 881 q 235 508 235 675 q 336 233 235 343 q 603 122 438 122 m 624 826 q 771 783 715 826 q 831 686 831 735 q 817 645 831 661 q 778 629 803 629 q 711 647 757 629 q 604 665 665 665 q 513 616 547 665 q 478 507 478 567 q 515 390 478 440 q 615 339 551 339 q 697 360 646 339 q 768 382 747 382 q 812 365 792 382 q 832 325 832 347 q 749 230 832 265 q 594 194 665 194 q 397 288 467 194 q 328 507 328 381 q 412 733 328 639 q 624 826 496 826 z "},"ª":{"ha":1467,"x_min":0,"x_max":0,"o":""},"«":{"ha":650,"x_min":0,"x_max":0,"o":""},"¬":{"ha":1467,"x_min":0,"x_max":0,"o":""},"®":{"ha":1467,"x_min":0,"x_max":0,"o":""},"¯":{"ha":722,"x_min":50,"x_max":482,"o":"m 482 421 q 467 348 482 365 q 404 331 453 331 l 124 331 q 63 346 76 331 q 50 417 50 361 q 63 495 50 476 q 121 514 76 514 l 407 514 q 465 493 447 514 q 482 421 482 472 m 319 394 q 378 425 378 394 q 315 456 378 456 l 217 456 q 157 426 157 456 q 208 394 157 394 l 319 394 z "},"°":{"ha":1467,"x_min":0,"x_max":0,"o":""},"±":{"ha":1467,"x_min":0,"x_max":0,"o":""},"²":{"ha":1467,"x_min":0,"x_max":0,"o":""},"³":{"ha":1467,"x_min":0,"x_max":0,"o":""},"´":{"ha":851,"x_min":224,"x_max":606,"o":"m 606 471 q 574 433 606 460 q 497 370 543 406 q 435 318 451 335 q 329 293 410 293 q 224 332 224 293 q 258 397 224 344 q 314 475 293 450 q 390 513 347 513 q 455 515 404 513 q 522 518 506 518 q 581 505 556 518 q 606 471 606 492 z "},"µ":{"ha":1467,"x_min":0,"x_max":0,"o":""},"¶":{"ha":1026,"x_min":119,"x_max":814,"o":"m 814 -108 q 813 -148 814 -136 q 806 -175 811 -160 q 785 -196 800 -190 q 746 -201 771 -201 q 691 -185 706 -201 q 676 -128 676 -169 l 676 747 q 665 831 676 788 q 629 874 654 874 q 579 747 579 874 l 579 -128 q 558 -178 579 -154 q 513 -201 538 -201 q 440 -128 440 -201 l 440 443 q 397 524 440 524 q 194 594 268 524 q 119 792 119 664 q 141 948 119 888 q 212 1040 163 1008 q 322 1081 261 1071 q 479 1092 382 1092 l 674 1092 q 776 1044 739 1092 q 814 942 814 996 l 814 -108 m 417 722 q 430 739 417 722 q 442 796 442 756 q 418 876 442 836 q 357 917 394 917 q 292 876 318 917 q 265 796 265 836 q 290 722 265 756 q 354 688 315 688 q 417 722 393 688 z "},"·":{"ha":693,"x_min":133,"x_max":438,"o":"m 438 513 q 392 406 438 447 q 282 364 347 364 q 178 408 222 364 q 133 513 133 453 q 175 622 133 578 q 282 667 217 667 q 394 624 350 667 q 438 513 438 581 m 335 519 q 285 568 335 568 q 235 514 235 568 q 248 481 235 493 q 282 468 261 468 q 335 519 335 468 z "},"¸":{"ha":572,"x_min":71,"x_max":429,"o":"m 429 -615 q 379 -694 429 -661 q 233 -726 329 -726 q 117 -702 163 -726 q 71 -654 71 -678 q 86 -610 71 -625 q 117 -596 101 -596 q 196 -571 196 -596 q 177 -540 196 -556 q 158 -499 158 -524 q 194 -427 158 -467 q 275 -387 231 -387 q 348 -394 331 -387 q 365 -418 365 -400 q 351 -450 365 -433 q 336 -485 336 -467 q 351 -508 336 -496 q 383 -532 365 -521 q 415 -565 400 -543 q 429 -615 429 -587 m 306 -610 q 297 -592 306 -600 q 276 -585 288 -585 q 249 -608 249 -585 q 275 -632 249 -632 q 306 -610 306 -632 z "},"¹":{"ha":1467,"x_min":0,"x_max":0,"o":""},"º":{"ha":1467,"x_min":0,"x_max":0,"o":""},"»":{"ha":4417,"x_min":0,"x_max":0,"o":""},"¼":{"ha":1467,"x_min":0,"x_max":0,"o":""},"½":{"ha":1467,"x_min":0,"x_max":0,"o":""},"¾":{"ha":1467,"x_min":0,"x_max":0,"o":""},"¿":{"ha":6543,"x_min":0,"x_max":0,"o":""},"À":{"ha":4886,"x_min":0,"x_max":0,"o":""},"Á":{"ha":4886,"x_min":0,"x_max":0,"o":""},"Â":{"ha":4886,"x_min":0,"x_max":0,"o":""},"Ã":{"ha":4886,"x_min":0,"x_max":0,"o":""},"Ä":{"ha":4886,"x_min":0,"x_max":0,"o":""},"Å":{"ha":4886,"x_min":0,"x_max":0,"o":""},"Æ":{"ha":1647,"x_min":125,"x_max":1417,"o":"m 893 1006 q 935 1008 896 1006 q 1010 1010 975 1010 q 1351 983 1297 1010 q 1396 924 1396 963 q 1378 878 1396 900 q 1333 849 1360 857 q 1179 836 1292 836 q 1017 806 1049 836 q 988 708 988 776 q 1022 631 988 663 q 1041 617 1031 622 q 1067 607 1051 611 q 1094 601 1082 603 q 1126 598 1106 599 q 1155 597 1146 597 q 1185 597 1164 597 q 1211 597 1207 597 q 1364 517 1364 597 q 1221 432 1364 432 q 1190 433 1215 432 q 1151 433 1164 433 q 1115 431 1139 432 q 1077 426 1092 429 q 1047 415 1063 422 q 1021 397 1031 407 q 988 299 988 364 q 1011 208 988 232 q 1244 169 1050 169 q 1417 93 1417 169 q 1377 31 1417 58 q 1269 1 1338 4 q 1047 -7 1107 -7 q 861 15 910 -7 q 819 51 835 28 q 788 116 803 75 q 765 172 774 157 q 600 233 736 233 q 404 186 476 233 q 342 126 379 169 q 293 69 306 82 q 283 60 292 68 q 272 49 275 51 q 260 39 268 46 q 245 29 251 32 q 230 22 239 26 q 210 17 221 18 q 189 15 200 15 q 144 35 163 15 q 125 82 125 54 q 137 124 125 100 q 162 167 149 149 q 204 223 175 186 q 250 283 233 260 q 380 462 279 324 q 549 690 481 600 q 685 863 617 779 q 893 1006 801 1006 m 768 561 q 762 573 768 561 q 729 585 756 585 q 665 540 703 585 q 628 457 628 494 q 649 417 628 431 q 699 404 669 404 q 758 436 736 404 q 781 510 781 468 q 768 561 781 538 z "},"Ç":{"ha":0,"x_min":0,"x_max":0,"o":""},"È":{"ha":5733,"x_min":0,"x_max":0,"o":""},"É":{"ha":5733,"x_min":0,"x_max":0,"o":""},"Ê":{"ha":5733,"x_min":0,"x_max":0,"o":""},"Ë":{"ha":5733,"x_min":0,"x_max":0,"o":""},"Ì":{"ha":1467,"x_min":0,"x_max":0,"o":""},"Í":{"ha":1467,"x_min":0,"x_max":0,"o":""},"Î":{"ha":1467,"x_min":0,"x_max":0,"o":""},"Ï":{"ha":1467,"x_min":0,"x_max":0,"o":""},"Ð":{"ha":1467,"x_min":0,"x_max":0,"o":""},"Ñ":{"ha":0,"x_min":0,"x_max":0,"o":""},"Ò":{"ha":3224,"x_min":0,"x_max":0,"o":""},"Ó":{"ha":3224,"x_min":0,"x_max":0,"o":""},"Ô":{"ha":3224,"x_min":0,"x_max":0,"o":""},"Õ":{"ha":3224,"x_min":0,"x_max":0,"o":""},"Ö":{"ha":3224,"x_min":0,"x_max":0,"o":""},"×":{"ha":1467,"x_min":0,"x_max":0,"o":""},"Ø":{"ha":1467,"x_min":0,"x_max":0,"o":""},"Ù":{"ha":0,"x_min":0,"x_max":0,"o":""},"Ú":{"ha":0,"x_min":0,"x_max":0,"o":""},"Û":{"ha":0,"x_min":0,"x_max":0,"o":""},"Ü":{"ha":0,"x_min":0,"x_max":0,"o":""},"Ý":{"ha":2160,"x_min":0,"x_max":0,"o":""},"Þ":{"ha":1467,"x_min":0,"x_max":0,"o":""},"ß":{"ha":1467,"x_min":0,"x_max":0,"o":""},"à":{"ha":876,"x_min":88,"x_max":710,"o":"m 289 992 q 362 956 329 992 q 394 883 394 921 q 361 843 394 843 q 285 885 326 843 q 244 960 244 926 q 289 992 244 992 m 374 813 q 493 818 435 818 q 697 725 697 818 q 682 657 697 701 q 667 597 667 613 q 671 579 667 588 q 698 455 686 549 q 710 264 710 361 q 657 29 710 56 q 596 18 633 18 q 538 22 578 18 q 479 26 497 26 q 442 22 458 26 q 405 8 433 21 q 364 -6 376 -4 q 326 -8 339 -8 q 169 36 235 -8 q 135 71 158 43 q 88 200 88 125 q 107 288 88 247 q 195 383 135 344 q 329 433 256 422 q 372 437 344 436 q 417 441 399 438 q 449 454 435 444 q 467 493 467 468 q 442 544 467 529 q 374 558 419 558 q 294 551 353 558 q 267 544 275 544 q 213 559 232 544 q 194 596 194 574 q 211 642 194 619 q 232 672 213 643 q 265 717 251 700 q 300 760 279 735 q 340 798 321 785 q 374 813 358 811 m 378 294 q 328 265 346 289 q 310 213 310 242 q 331 160 310 182 q 393 139 353 139 q 402 140 396 139 q 413 140 408 140 q 466 170 446 146 q 486 225 486 194 q 466 276 486 256 q 407 297 446 297 q 378 294 400 297 z "},"á":{"ha":879,"x_min":88,"x_max":714,"o":"m 459 954 q 475 973 459 954 q 535 992 492 992 q 578 961 578 992 q 538 880 578 925 q 461 835 497 835 q 426 872 426 835 q 459 954 426 917 m 410 726 l 424 726 q 578 673 497 726 q 682 565 658 619 q 704 452 694 536 q 714 279 714 368 q 661 29 714 54 q 600 18 638 18 q 542 22 581 18 q 483 26 503 26 q 444 22 464 26 q 408 8 436 21 q 368 -6 381 -4 q 329 -8 343 -8 q 160 50 235 -8 q 88 189 88 107 q 135 322 88 258 q 250 413 183 386 q 349 429 274 422 q 451 454 425 436 q 474 490 474 471 q 431 544 474 524 q 378 554 413 554 q 329 551 361 554 q 281 547 297 547 q 243 551 260 547 q 194 599 194 565 q 229 656 194 631 q 313 701 258 679 q 410 726 367 722 m 382 294 q 331 265 350 289 q 313 213 313 242 q 334 160 313 182 q 396 139 356 139 q 407 140 400 139 q 417 140 414 140 q 469 171 450 146 q 489 225 489 196 q 469 276 489 256 q 410 297 449 297 q 382 294 401 297 z "},"â":{"ha":556,"x_min":88,"x_max":418,"o":"m 251 1008 q 363 967 307 1008 q 418 872 418 926 q 375 839 418 839 q 313 856 353 839 q 251 872 272 872 q 188 856 226 872 q 124 840 150 840 q 99 856 110 840 q 88 890 88 871 q 146 971 88 933 q 251 1008 204 1008 z "},"ã":{"ha":628,"x_min":88,"x_max":485,"o":"m 206 982 q 278 969 233 982 q 340 957 324 957 q 385 958 356 957 q 428 958 414 958 q 485 910 485 958 q 442 856 485 881 q 365 831 400 831 q 286 843 339 831 q 207 856 233 856 q 181 855 199 856 q 156 854 164 854 q 88 894 88 854 q 127 956 88 931 q 206 982 167 982 z "},"ä":{"ha":690,"x_min":88,"x_max":540,"o":"m 160 990 q 238 963 197 990 q 279 908 279 936 q 243 853 279 881 q 175 826 207 826 q 112 849 136 826 q 88 910 88 872 q 108 967 88 943 q 160 990 128 990 m 457 989 q 518 966 496 989 q 540 911 540 943 q 517 855 540 879 q 454 831 493 831 q 383 853 421 831 q 346 908 346 876 q 387 963 346 936 q 457 989 428 989 z "},"å":{"ha":390,"x_min":88,"x_max":269,"o":"m 172 1025 q 242 1003 214 1025 q 269 949 269 982 q 235 871 269 917 q 172 825 200 825 q 116 868 144 825 q 88 944 88 911 q 110 1003 88 981 q 172 1025 133 1025 m 139 932 q 149 905 139 915 q 172 894 158 894 q 199 906 186 894 q 211 929 211 917 q 199 958 211 946 q 172 969 186 969 q 150 958 161 969 q 139 932 139 946 z "},"æ":{"ha":1658,"x_min":192,"x_max":1274,"o":"m 490 693 q 617 670 539 693 q 733 647 694 647 q 847 671 772 647 q 968 694 922 694 q 1183 606 1092 694 q 1274 394 1274 517 q 1232 294 1274 326 q 1135 265 1196 265 q 1051 274 1107 265 q 969 282 996 282 q 891 263 926 282 q 856 204 856 244 q 888 148 856 167 q 967 129 919 129 q 1051 149 1000 129 q 1115 169 1103 169 q 1171 151 1150 169 q 1192 101 1192 133 q 1146 30 1192 58 q 1051 -8 1100 1 q 958 -17 1003 -17 q 821 1 875 -17 q 785 18 804 7 q 750 35 767 29 q 707 40 733 40 q 574 13 664 40 q 428 -15 485 -15 q 285 15 336 -15 q 192 193 192 74 q 272 352 192 294 q 456 410 351 410 q 544 425 503 410 q 586 475 586 440 q 457 542 586 542 q 417 539 447 542 q 369 536 386 536 q 296 593 296 536 q 365 667 296 640 q 490 693 435 693 m 874 481 q 894 435 874 454 q 953 417 915 417 q 1015 431 986 417 q 1043 474 1043 444 q 1017 520 1043 499 q 953 542 990 542 q 897 526 921 542 q 874 481 874 511 m 419 192 q 438 149 419 167 q 493 132 457 132 q 554 151 529 132 q 579 204 579 169 q 561 249 579 231 q 508 268 543 268 q 446 247 472 268 q 419 192 419 226 z "},"ç":{"ha":764,"x_min":74,"x_max":621,"o":"m 431 700 q 506 691 465 700 q 584 656 547 682 q 621 594 621 631 q 594 540 621 560 q 533 521 568 521 q 490 525 521 521 q 439 529 458 529 q 306 480 356 529 q 256 346 256 431 q 305 208 256 261 q 439 154 354 154 q 468 156 446 154 q 503 157 490 157 q 617 88 617 157 q 599 44 617 65 q 551 1 581 24 q 515 -26 521 -21 q 496 -69 496 -46 q 516 -135 496 -93 q 536 -207 536 -178 q 495 -283 536 -256 q 404 -310 454 -310 q 365 -301 383 -310 q 347 -279 347 -293 q 358 -235 347 -262 q 368 -192 368 -207 q 360 -151 368 -172 q 338 -106 351 -131 q 321 -72 325 -81 q 263 13 301 -26 q 182 90 224 51 q 119 167 140 128 q 74 340 74 250 q 182 592 74 485 q 431 700 290 700 z "},"è":{"ha":0,"x_min":0,"x_max":0,"o":""},"é":{"ha":0,"x_min":0,"x_max":0,"o":""},"ê":{"ha":0,"x_min":0,"x_max":0,"o":""},"ë":{"ha":0,"x_min":0,"x_max":0,"o":""},"ì":{"ha":1467,"x_min":0,"x_max":0,"o":""},"í":{"ha":1467,"x_min":0,"x_max":0,"o":""},"î":{"ha":1467,"x_min":0,"x_max":0,"o":""},"ï":{"ha":1467,"x_min":0,"x_max":0,"o":""},"ð":{"ha":1467,"x_min":0,"x_max":0,"o":""},"ñ":{"ha":2767,"x_min":0,"x_max":0,"o":""},"ò":{"ha":2608,"x_min":0,"x_max":0,"o":""},"ó":{"ha":2608,"x_min":0,"x_max":0,"o":""},"ô":{"ha":2608,"x_min":0,"x_max":0,"o":""},"õ":{"ha":2608,"x_min":0,"x_max":0,"o":""},"ö":{"ha":2608,"x_min":0,"x_max":0,"o":""},"÷":{"ha":1467,"x_min":0,"x_max":0,"o":""},"ø":{"ha":1467,"x_min":0,"x_max":0,"o":""},"ù":{"ha":0,"x_min":0,"x_max":0,"o":""},"ú":{"ha":0,"x_min":0,"x_max":0,"o":""},"û":{"ha":0,"x_min":0,"x_max":0,"o":""},"ü":{"ha":0,"x_min":0,"x_max":0,"o":""},"ý":{"ha":3025,"x_min":0,"x_max":0,"o":""},"þ":{"ha":1467,"x_min":0,"x_max":0,"o":""},"ÿ":{"ha":3025,"x_min":0,"x_max":0,"o":""},"ı":{"ha":1467,"x_min":0,"x_max":0,"o":""},"Ł":{"ha":1467,"x_min":0,"x_max":0,"o":""},"ł":{"ha":1467,"x_min":0,"x_max":0,"o":""},"Œ":{"ha":1467,"x_min":0,"x_max":0,"o":""},"œ":{"ha":1467,"x_min":0,"x_max":0,"o":""},"Š":{"ha":3381,"x_min":0,"x_max":0,"o":""},"š":{"ha":3376,"x_min":0,"x_max":0,"o":""},"Ÿ":{"ha":1467,"x_min":0,"x_max":0,"o":""},"Ž":{"ha":1467,"x_min":0,"x_max":0,"o":""},"ž":{"ha":1467,"x_min":0,"x_max":0,"o":""},"ƒ":{"ha":650,"x_min":0,"x_max":0,"o":""},"ˆ":{"ha":840,"x_min":131,"x_max":621,"o":"m 621 338 q 538 299 621 299 q 435 308 439 299 q 430 317 435 310 q 423 328 425 325 q 415 338 421 331 q 406 347 410 344 q 394 353 401 350 q 381 356 388 356 q 357 349 367 356 q 335 328 347 343 q 321 311 324 314 q 232 299 306 299 q 131 339 131 299 q 165 397 131 351 q 219 461 199 442 q 277 508 254 497 q 335 519 300 519 l 429 519 q 447 518 439 519 q 464 514 456 517 q 478 509 472 511 q 492 501 485 507 q 503 493 499 496 q 514 484 507 490 q 523 476 521 478 q 531 467 525 474 q 538 460 538 461 q 592 394 564 433 q 621 338 621 356 z "},"ˇ":{"ha":750,"x_min":111,"x_max":575,"o":"m 575 479 q 486 369 575 458 q 417 320 458 342 q 344 299 376 299 q 269 319 313 299 q 194 371 225 340 q 111 481 111 454 q 125 512 111 504 q 186 519 139 519 q 274 504 261 519 q 290 483 276 501 q 316 456 303 465 q 344 446 329 446 q 370 456 358 446 q 394 482 382 465 q 411 503 407 499 q 499 519 428 519 q 560 511 546 519 q 575 479 575 503 z "},"˘":{"ha":589,"x_min":42,"x_max":494,"o":"m 494 457 q 431 354 494 404 q 279 304 367 304 q 116 356 190 304 q 42 457 42 408 q 54 503 42 492 q 110 514 67 514 q 152 511 138 514 q 172 506 167 508 q 184 493 176 504 q 197 476 192 482 q 279 431 243 431 q 299 435 290 431 q 314 444 308 439 q 329 459 319 449 q 344 475 339 469 q 354 488 347 479 q 366 501 361 497 q 383 510 371 506 q 415 514 396 514 q 481 503 467 514 q 494 457 494 492 z "},"˙":{"ha":771,"x_min":200,"x_max":506,"o":"m 506 463 q 462 353 506 397 q 353 310 418 310 q 244 353 288 310 q 200 463 200 397 q 242 571 200 528 q 353 614 285 614 q 463 569 419 614 q 506 463 506 525 m 378 463 q 369 481 378 472 q 351 489 361 489 q 333 481 340 489 q 325 463 325 474 q 333 443 325 451 q 351 435 340 435 q 370 443 363 435 q 378 463 378 451 z "},"˚":{"ha":465,"x_min":71,"x_max":351,"o":"m 351 432 q 311 334 351 372 q 211 296 271 296 q 112 334 153 296 q 71 431 71 372 q 111 529 71 490 q 211 568 151 568 q 311 529 271 568 q 351 432 351 490 m 288 432 q 265 483 288 463 q 211 504 242 504 q 158 483 181 504 q 136 432 136 463 q 158 381 136 401 q 211 360 181 360 q 265 380 243 360 q 288 432 288 400 z "},"˛":{"ha":332,"x_min":11,"x_max":286,"o":"m 286 -651 q 193 -704 286 -704 q 62 -664 113 -704 q 11 -546 11 -624 q 67 -425 11 -475 q 194 -375 124 -375 q 227 -381 210 -375 q 244 -399 244 -386 q 213 -435 244 -412 q 149 -485 181 -458 q 117 -537 117 -512 q 139 -588 117 -562 q 185 -614 161 -614 q 215 -599 197 -614 q 243 -585 232 -585 q 276 -606 265 -585 q 286 -651 286 -626 z "},"˜":{"ha":783,"x_min":100,"x_max":642,"o":"m 642 464 q 587 358 642 413 q 456 304 532 304 q 363 330 414 304 q 297 356 311 356 q 238 332 269 356 q 168 308 207 308 q 100 358 100 308 q 106 380 100 364 q 125 419 111 396 q 158 465 139 443 q 211 501 178 486 q 285 517 244 517 q 382 494 336 517 q 443 471 428 471 q 502 492 463 471 q 574 514 542 514 q 642 464 642 514 z "},"˝":{"ha":728,"x_min":58,"x_max":571,"o":"m 571 517 q 547 482 571 507 q 492 426 524 457 q 449 379 461 396 q 381 357 432 357 q 314 390 314 357 q 385 519 314 417 q 433 554 406 554 q 474 557 442 554 q 518 560 507 560 q 555 548 539 560 q 571 517 571 536 m 315 517 q 292 482 315 507 q 237 426 268 457 q 193 379 206 396 q 126 357 179 357 q 58 390 58 357 q 129 519 58 406 q 178 554 150 554 q 219 557 186 554 q 263 560 251 560 q 300 548 285 560 q 315 517 315 536 z "},"–":{"ha":942,"x_min":142,"x_max":715,"o":"m 715 511 q 618 482 715 482 l 211 482 q 142 511 142 482 q 239 549 142 549 l 615 549 q 715 511 715 549 z "},"—":{"ha":1044,"x_min":28,"x_max":919,"o":"m 158 475 l 781 475 q 888 459 856 475 q 919 404 919 443 q 886 352 919 368 q 781 336 853 336 l 158 336 q 28 404 28 336 q 158 475 28 475 z "},"‘":{"ha":465,"x_min":81,"x_max":344,"o":"m 344 739 q 303 663 344 686 q 204 639 261 639 q 110 683 140 639 q 81 796 81 728 q 139 938 81 847 q 246 1031 197 1029 l 260 1018 q 238 964 260 1001 q 217 908 217 926 q 237 867 217 885 q 281 838 257 849 q 324 802 304 828 q 344 739 344 776 m 288 756 q 292 760 288 756 q 297 778 297 765 q 288 799 297 790 q 265 808 278 808 q 244 799 253 808 q 235 778 235 790 q 244 756 235 765 q 265 746 253 746 q 288 756 278 746 z "},"’":{"ha":449,"x_min":72,"x_max":336,"o":"m 336 799 q 306 686 336 731 q 211 642 276 642 q 113 666 154 642 q 72 743 72 690 q 92 806 72 781 q 135 842 111 831 q 179 871 160 853 q 199 913 199 889 q 178 969 199 929 q 157 1022 157 1008 q 169 1033 157 1033 q 277 942 218 1033 q 336 799 336 850 m 172 759 q 176 764 172 759 q 181 781 181 768 q 172 802 181 793 q 150 811 163 811 q 128 802 138 811 q 119 781 119 793 q 128 759 119 768 q 150 750 138 750 q 172 759 163 750 z "},"‚":{"ha":650,"x_min":0,"x_max":0,"o":""},"“":{"ha":765,"x_min":78,"x_max":618,"o":"m 618 782 q 576 706 618 729 q 478 682 535 682 q 365 839 365 682 q 416 985 365 897 q 519 1074 467 1074 l 533 1063 q 512 1008 533 1046 q 490 951 490 969 q 510 910 490 928 q 554 881 531 892 q 598 845 578 871 q 618 782 618 819 m 342 783 q 300 706 342 731 q 203 682 258 682 q 108 726 138 682 q 78 839 78 771 q 137 983 78 892 q 244 1074 196 1074 l 257 1063 q 236 1008 257 1046 q 215 953 215 971 q 235 911 215 929 q 278 883 254 893 q 322 847 303 872 q 342 783 342 821 m 561 799 q 566 804 561 799 q 571 821 571 808 q 561 842 571 833 q 539 851 551 851 q 517 842 526 851 q 508 821 508 833 q 517 799 508 808 q 539 790 526 790 q 561 799 551 790 m 285 799 q 290 804 285 799 q 294 821 294 808 q 285 843 294 833 q 264 853 276 853 q 242 843 251 853 q 232 821 232 833 q 242 799 232 808 q 264 790 251 790 q 285 799 276 790 z "},"”":{"ha":746,"x_min":69,"x_max":610,"o":"m 610 839 q 580 726 610 771 q 485 682 550 682 q 388 706 429 682 q 346 783 346 731 q 365 847 346 821 q 409 883 385 872 q 453 911 433 893 q 472 953 472 929 q 451 1008 472 971 q 431 1063 431 1046 l 443 1074 q 551 983 492 1074 q 610 839 610 892 m 322 839 q 210 682 322 682 q 111 706 153 682 q 69 782 69 729 q 89 845 69 819 q 133 881 108 871 q 176 910 157 892 q 196 951 196 928 q 175 1008 196 969 q 154 1063 154 1046 l 168 1074 q 272 985 221 1074 q 322 839 322 897 m 446 799 q 451 804 446 799 q 456 821 456 808 q 446 843 456 833 q 424 853 436 853 q 402 843 411 853 q 393 821 393 833 q 402 799 393 808 q 424 790 411 790 q 446 799 436 790 m 170 799 q 175 804 170 799 q 179 821 179 808 q 170 842 179 833 q 149 851 161 851 q 126 842 135 851 q 117 821 117 833 q 126 799 117 808 q 149 790 135 790 q 170 799 161 790 z "},"„":{"ha":650,"x_min":0,"x_max":0,"o":""},"†":{"ha":1072,"x_min":64,"x_max":911,"o":"m 910 603 q 822 525 910 525 l 688 525 q 639 513 653 525 q 625 467 625 501 l 625 -151 q 550 -260 625 -260 l 435 -260 q 369 -233 386 -260 q 351 -151 351 -206 l 351 450 q 349 492 351 478 q 333 515 346 506 q 296 525 321 525 l 165 525 q 88 540 113 525 q 64 604 64 556 l 64 668 q 165 776 64 776 l 296 776 q 342 794 332 776 q 351 851 351 811 l 351 1036 q 369 1117 351 1089 q 435 1144 386 1144 l 550 1144 q 625 1036 625 1144 l 625 835 q 639 789 625 801 q 688 776 653 776 l 822 776 q 865 765 847 776 q 892 741 883 754 q 905 701 900 728 q 910 660 910 674 q 910 618 910 647 q 910 603 910 607 m 799 653 q 784 683 799 671 q 753 701 769 696 q 712 711 738 706 q 678 719 686 717 q 621 753 650 728 q 557 922 557 810 q 556 965 557 949 q 548 1003 554 981 q 526 1036 542 1025 q 486 1047 511 1047 q 447 1035 463 1047 q 426 1001 432 1024 q 419 962 421 978 q 418 919 418 946 q 347 744 418 806 q 302 722 333 732 q 244 708 271 713 q 197 688 218 703 q 176 651 176 674 q 208 608 176 622 q 285 583 240 593 q 347 558 331 574 q 418 382 418 496 l 418 -56 q 486 -164 418 -164 q 557 -51 557 -164 l 557 379 q 575 487 557 443 q 619 549 593 531 q 678 581 646 568 q 736 599 710 594 q 781 617 763 604 q 799 653 799 631 z "},"‡":{"ha":1078,"x_min":67,"x_max":915,"o":"m 914 113 q 890 37 914 68 q 825 6 867 6 l 690 6 q 642 -6 656 6 q 629 -53 629 -18 l 629 -254 q 553 -361 629 -361 l 438 -361 q 372 -334 389 -361 q 354 -254 354 -307 l 354 -69 q 352 -28 354 -40 q 338 -5 350 -15 q 299 6 325 6 l 168 6 q 67 114 67 6 l 67 179 q 91 242 67 228 q 168 257 115 257 l 299 257 q 345 274 336 257 q 354 332 354 290 l 354 424 q 352 465 354 451 q 338 488 350 478 q 299 499 325 499 l 168 499 q 91 513 115 499 q 67 576 67 528 l 67 642 q 168 750 67 750 l 299 750 q 345 767 336 750 q 354 825 354 783 l 354 1010 q 372 1090 354 1063 q 438 1117 389 1117 l 553 1117 q 629 1010 629 1117 l 629 808 q 642 762 629 774 q 690 750 656 750 l 825 750 q 869 739 851 750 q 896 714 888 728 q 909 674 904 700 q 914 633 914 647 q 914 590 914 619 q 914 575 914 579 q 825 499 914 499 l 690 499 q 642 486 656 499 q 629 440 629 474 l 629 315 q 642 269 629 282 q 690 257 656 257 l 825 257 q 914 181 914 257 l 914 113 m 803 129 q 783 165 803 151 q 736 185 763 179 q 676 203 710 190 q 624 233 643 215 q 557 378 557 296 q 624 522 557 460 q 676 553 643 540 q 736 571 710 565 q 783 590 763 576 q 803 626 803 604 q 788 657 803 644 q 757 674 774 669 q 715 685 740 679 q 681 693 689 690 q 624 726 649 703 q 560 896 560 783 q 558 938 560 921 q 551 976 557 954 q 529 1010 544 999 q 489 1021 514 1021 q 442 999 458 1021 q 424 957 426 978 q 421 903 422 936 q 421 893 421 896 q 405 792 419 833 q 350 717 390 751 q 288 692 333 701 q 211 668 243 682 q 179 625 179 654 q 211 581 179 594 q 288 557 243 567 q 350 531 333 547 q 424 378 424 464 q 350 225 424 292 q 288 199 333 208 q 211 175 243 189 q 179 131 179 161 q 211 88 179 101 q 288 64 243 74 q 350 39 333 54 q 421 -137 421 -24 q 422 -180 421 -164 q 429 -219 424 -196 q 450 -253 435 -242 q 489 -265 465 -265 q 529 -254 514 -265 q 551 -221 544 -243 q 558 -182 557 -199 q 560 -140 560 -165 q 624 29 560 -28 q 681 63 649 53 q 715 71 689 65 q 757 81 740 76 q 788 99 774 86 q 803 129 803 111 z "},"•":{"ha":1392,"x_min":94,"x_max":1172,"o":"m 1013 905 q 1092 827 1013 905 q 1172 522 1172 749 q 1013 140 1172 296 q 625 -17 853 -17 q 251 144 407 -17 q 94 522 94 304 q 251 901 94 742 q 625 1061 408 1061 q 1013 905 853 1061 z "},"‹":{"ha":650,"x_min":0,"x_max":0,"o":""},"›":{"ha":650,"x_min":0,"x_max":0,"o":""},"™":{"ha":1369,"x_min":96,"x_max":1151,"o":"m 1150 838 q 1151 803 1150 835 q 1151 744 1151 771 q 1149 678 1150 718 q 1146 606 1149 638 q 1139 545 1143 575 q 1126 499 1135 515 q 1107 483 1118 483 q 1076 510 1086 483 q 1062 569 1065 538 q 1044 628 1058 601 q 1003 656 1029 656 q 958 629 976 656 q 929 572 939 603 q 901 515 919 542 q 854 489 882 489 q 803 515 824 489 q 774 572 783 542 q 747 629 765 603 q 700 656 728 656 q 661 628 675 656 q 644 569 647 601 q 631 509 640 536 q 603 482 621 482 q 563 550 563 482 q 558 706 563 603 q 553 860 553 808 q 574 921 553 892 q 628 950 596 950 q 700 923 674 950 q 738 858 726 896 q 758 781 749 819 q 791 715 768 742 q 854 688 814 688 q 923 728 899 688 q 955 819 947 769 q 991 909 963 868 q 1072 950 1019 950 q 1150 838 1150 950 m 499 918 q 474 892 499 907 q 418 861 449 876 q 363 812 388 846 q 338 733 338 778 q 338 714 338 731 q 340 677 339 697 q 341 631 340 657 q 340 583 342 606 q 333 540 338 560 q 321 508 329 519 q 300 496 313 496 q 274 517 283 496 q 262 574 264 539 q 259 640 260 610 q 261 701 258 669 l 263 733 q 237 815 263 779 q 179 866 211 850 q 122 896 147 882 q 96 918 96 910 q 265 957 96 957 l 306 957 q 499 918 499 957 z "},"−":{"ha":1467,"x_min":0,"x_max":0,"o":""},"∕":{"ha":650,"x_min":0,"x_max":0,"o":""},"ﬂ":{"ha":1028,"x_min":42,"x_max":888,"o":"m 869 681 q 839 651 850 661 q 803 674 817 654 q 789 717 789 693 q 803 760 789 740 q 839 786 817 779 l 868 751 q 817 763 850 751 l 810 726 l 853 726 l 869 681 m 772 658 l 729 658 q 688 671 688 658 q 757 726 688 694 l 757 763 q 697 740 726 763 q 735 786 700 763 l 772 771 l 772 726 l 713 674 l 772 674 l 772 658 m 547 897 l 492 886 l 514 842 l 471 839 l 450 965 l 513 978 l 528 957 l 475 946 l 481 915 l 529 924 l 547 897 m 632 658 l 610 649 l 586 703 l 568 700 l 514 640 l 557 718 l 529 785 l 576 746 l 639 790 l 586 726 l 632 658 m 433 878 l 435 878 q 415 849 435 863 q 382 836 396 836 q 351 853 364 836 q 338 882 338 869 q 351 873 342 879 q 367 864 360 867 q 382 861 374 861 q 408 881 408 861 q 342 921 408 899 q 352 953 342 932 q 372 974 363 974 q 406 966 393 974 q 419 950 418 958 l 421 943 l 376 954 l 368 932 q 412 912 390 926 q 433 878 433 897 m 311 896 q 243 864 286 864 q 222 865 236 864 q 200 865 207 865 q 193 903 200 882 q 269 940 222 940 q 256 872 269 928 q 278 879 267 872 q 289 897 289 886 q 274 948 289 928 q 231 968 260 968 q 169 872 186 968 q 267 843 211 840 q 229 819 251 819 q 181 847 203 819 q 160 901 160 874 q 179 957 160 933 q 229 981 199 981 q 284 955 263 981 q 311 896 306 929 m 415 733 q 415 700 415 722 q 414 667 414 678 l 325 658 l 332 786 q 364 785 353 786 q 389 780 375 785 q 409 764 403 775 q 415 733 415 753 m 139 924 q 138 913 139 918 q 133 906 136 908 q 126 900 129 903 q 116 897 122 897 q 106 895 110 896 q 94 894 101 894 q 84 894 88 894 q 74 895 81 894 q 65 896 67 896 l 65 843 l 42 836 l 50 971 l 125 971 q 139 924 139 951 m 854 696 l 817 718 l 817 681 l 847 674 l 847 675 l 854 696 m 399 733 l 392 763 l 347 771 l 354 733 l 399 733 m 253 925 l 222 925 l 215 872 l 238 872 l 253 925 m 406 690 q 347 711 390 711 l 347 674 q 406 690 394 674 m 121 942 l 65 956 l 72 919 l 88 908 q 121 942 121 908 m 888 601 q 846 476 850 549 l 831 476 q 813 544 826 504 q 785 596 800 583 l 792 603 q 831 543 807 601 q 868 603 864 594 l 888 601 m 771 476 l 681 476 l 681 603 l 754 604 l 764 583 l 696 588 l 696 550 l 763 550 l 763 528 l 724 532 l 694 504 l 696 490 l 771 490 l 771 476 m 786 315 l 847 283 l 758 297 l 811 375 l 765 393 l 856 393 l 786 315 m 754 251 l 694 325 l 656 283 l 675 349 l 649 407 l 693 369 l 747 397 l 711 349 l 754 251 m 571 576 q 531 482 557 482 q 497 572 515 482 q 457 478 474 478 q 437 527 444 478 q 429 603 429 576 q 458 514 449 583 q 497 594 481 594 q 538 514 515 594 q 561 604 540 529 l 571 576 m 636 413 l 568 288 l 558 306 l 597 393 l 544 401 l 569 419 l 636 413 m 425 476 l 404 476 q 351 517 404 517 q 342 504 349 514 q 331 488 336 494 q 319 481 325 481 q 367 603 319 519 q 403 540 396 588 q 425 476 411 492 m 276 514 q 259 519 269 514 q 242 525 249 525 q 225 476 232 525 l 203 476 l 210 603 q 231 603 217 603 q 254 604 246 604 q 287 585 275 604 q 299 550 299 567 l 286 536 q 297 509 286 526 q 307 481 308 492 q 276 514 276 493 m 360 281 l 335 281 l 342 379 l 319 382 l 357 418 l 360 281 m 179 564 q 157 581 160 564 l 106 581 q 94 525 94 540 q 143 490 94 490 q 154 502 146 496 q 169 511 163 508 l 176 515 q 160 483 176 496 q 124 471 144 471 q 87 487 100 471 q 74 526 74 503 q 88 579 74 557 q 131 601 103 601 q 164 591 149 601 q 179 564 179 581 m 301 344 q 297 317 301 336 q 293 290 293 297 q 281 326 281 303 q 221 343 281 343 l 217 292 q 201 340 201 310 q 208 418 201 351 q 222 376 222 410 q 285 365 236 365 q 289 417 282 392 q 301 344 301 376 m 190 290 q 167 306 175 290 q 158 335 158 321 q 142 338 151 336 q 126 339 133 339 l 108 290 l 86 290 l 94 417 q 140 419 125 419 q 167 402 156 419 q 183 365 179 385 l 169 350 l 190 290 m 299 242 q 264 188 285 226 q 277 151 264 178 q 290 119 290 124 l 290 118 q 247 175 269 133 q 228 167 243 168 q 215 146 214 165 l 217 115 l 203 115 q 210 242 203 172 q 226 189 218 228 q 299 242 243 206 m 183 225 l 172 122 q 156 118 167 121 q 135 114 144 115 q 119 113 126 113 q 85 128 99 113 q 71 164 71 143 q 90 242 71 219 l 97 138 l 165 158 l 165 242 l 183 225 m 389 543 l 367 581 l 354 542 l 369 528 l 389 543 m 225 543 q 282 565 282 543 q 225 588 282 588 l 225 543 m 154 401 l 108 401 l 108 357 l 161 365 l 154 401 m 144 728 q 72 707 126 707 l 69 661 l 54 661 l 61 788 l 129 788 q 144 728 144 764 m 132 757 l 69 772 l 75 736 l 103 724 l 132 757 m 667 479 q 654 472 665 479 q 642 464 643 464 q 617 470 635 464 q 593 476 599 476 l 601 603 l 624 557 l 608 490 l 667 479 m 478 354 q 447 283 478 311 q 401 301 410 283 q 392 360 392 318 q 399 392 392 381 q 417 409 407 404 q 429 418 428 414 q 465 394 451 413 q 478 354 478 376 m 454 396 l 415 396 l 411 303 l 454 306 l 454 396 m 482 761 q 453 747 464 761 q 442 715 442 733 q 483 667 442 667 q 513 680 501 667 q 524 711 524 693 q 482 761 524 761 m 193 654 q 162 665 175 654 q 149 696 149 676 q 165 756 149 728 q 210 785 181 785 q 252 765 235 785 q 269 719 269 746 q 247 672 269 690 q 193 654 224 654 m 211 761 q 182 747 193 761 q 171 715 171 733 q 213 667 171 667 q 242 680 231 667 q 253 711 253 693 q 211 761 253 761 z "}}}
